<svg width="262" height="123" viewBox="0 0 262 123" fill="none" xmlns="http://www.w3.org/2000/svg">
<path d="M61.3976 119.586C29.3108 119.586 3.20754 93.4822 3.20754 61.3969C3.20754 29.3117 29.3108 3.20751 61.3976 3.20751C93.4831 3.20751 119.586 29.3117 119.586 61.3969C119.586 93.4822 93.4831 119.586 61.3976 119.586ZM117.968 37.4981C114.876 30.1873 110.45 23.6217 104.811 17.9836C99.1732 12.3454 92.6076 7.91819 85.2954 4.82582C77.7263 1.62337 69.6853 0 61.3976 0C53.1098 0 45.0688 1.62337 37.4985 4.82582C30.1863 7.91819 23.6207 12.3454 17.9825 17.9836C12.3443 23.6217 7.91827 30.1873 4.82587 37.4981C1.62338 45.0684 0 53.1093 0 61.3969C0 69.6846 1.62338 77.7255 4.82587 85.2958C7.91827 92.6066 12.3443 99.1735 17.9825 104.812C23.6207 110.448 30.1863 114.876 37.4985 117.968C45.0688 121.171 53.1098 122.794 61.3976 122.794C69.6853 122.794 77.7263 121.171 85.2954 117.968C92.6076 114.876 99.1732 110.448 104.811 104.812C110.45 99.1735 114.876 92.6066 117.968 85.2958C121.171 77.7255 122.794 69.6846 122.794 61.3969C122.794 53.1093 121.171 45.0684 117.968 37.4981Z" fill="#FAB937"/>
<path d="M77.6547 103.054C77.6547 103.251 77.494 103.409 77.2975 103.409H45.7904C45.5939 103.409 45.4344 103.251 45.4344 103.054V90.6861C45.4344 90.4909 45.5939 90.3324 45.7904 90.3324H77.2975C77.494 90.3324 77.6547 90.4909 77.6547 90.6861V103.054ZM79.8966 94.6141C85.0029 91.5622 85.6498 87.1867 85.6498 87.1867C82.7381 87.202 80.5052 87.9995 78.798 89.1317C78.5071 88.8591 78.1179 88.6892 77.6866 88.6892H45.4012C44.9699 88.6892 44.5807 88.8591 44.2911 89.1317C42.5839 87.9995 40.3497 87.202 37.438 87.1867C37.438 87.1867 38.0849 91.5622 43.1912 94.6141C39.5267 94.1564 32.8496 93.7494 28.2473 95.9606C28.2473 95.9606 34.1588 101.888 43.7807 97.6697V103.442C43.7807 104.331 44.5055 105.053 45.4012 105.053H57.8456L52.7813 111.073L54.403 111.259L54.879 112.811L61.4055 105.053H61.6824L68.2088 112.811L68.6848 111.259L70.3065 111.073L65.2435 105.053H77.6866C78.5823 105.053 79.3071 104.331 79.3071 103.442V97.6697C88.9303 101.888 94.8405 95.9606 94.8405 95.9606C90.2382 93.7494 83.5611 94.1564 79.8966 94.6141ZM33.702 18.2577C28.0265 20.8518 29.1085 25.8194 29.1085 25.8194C33.5055 22.6395 33.702 18.2577 33.702 18.2577ZM38.5863 23.3965C38.5863 23.3965 33.9597 22.263 31.2624 26.1047C31.2624 26.1047 36.1786 26.8071 38.5863 23.3965ZM40.7401 14.9751C40.7401 14.9751 35.9145 15.585 35.2854 20.2546C35.2854 20.2546 39.7411 18.3223 40.7401 14.9751ZM43.2257 19.6359C39.2281 18.5886 37.008 21.2537 37.008 21.2537C41.5835 22.0778 43.2257 19.6359 43.2257 19.6359ZM47.5116 15.8892C43.486 14.8737 41.1727 17.6161 41.1727 17.6161C45.6002 18.4859 47.5116 15.8892 47.5116 15.8892ZM26.9535 23.5258C20.6975 27.2673 23.3642 32.7434 23.3642 32.7434C27.4039 28.1384 26.9535 23.5258 26.9535 23.5258ZM33.508 28.1992C33.508 28.1992 28.5191 27.6109 25.5193 32.6698C25.5193 32.6698 30.9523 32.8917 33.508 28.1992ZM20.4538 36.3645C21.2997 32.4289 19.6652 29.2643 19.6652 29.2643C13.0201 36.7563 18.7593 42.4111 18.7593 42.4111C19.4304 39.4898 19.6065 40.3013 20.4538 36.3645ZM16.0377 53.3631C16.0441 51.0936 16.7114 50.4875 16.3133 46.1247C15.9165 41.7619 13.1898 38.9979 13.1898 38.9979C8.71626 48.9128 16.0377 53.3631 16.0377 53.3631ZM28.6096 34.6706C28.6096 34.6706 23.5339 34.1964 20.7791 41.5185C20.7791 41.5185 26.8705 40.7108 28.6096 34.6706ZM24.9426 42.8028C24.9426 42.8028 19.0681 43.4469 17.9082 51.6515C17.9082 51.6515 24.2893 49.2742 24.9426 42.8028ZM15.8948 65.3511C15.3614 62.8457 15.6932 60.9033 14.3126 56.7535C12.932 52.6049 9.50735 50.6524 9.50735 50.6524C6.67601 61.1619 15.8948 65.3511 15.8948 65.3511ZM17.403 62.3538C17.403 62.3538 23.2723 58.8747 22.7887 51.7935C22.7887 51.7935 16.5251 53.8678 17.403 62.3538ZM18.6291 76.416C17.9771 75.1037 18.046 73.8333 15.2912 69.2397C12.5352 64.6449 7.98897 63.2121 7.98897 63.2121C7.79247 74.1541 18.6291 76.416 18.6291 76.416ZM22.4876 61.2203C15.9815 66.4694 19.6652 73.6507 19.6652 73.6507C24.9464 66.567 22.4876 61.2203 22.4876 61.2203ZM24.6593 70.0613C18.9201 78.9873 26.267 85.4751 26.267 85.4751C26.0973 82.8518 26.5337 80.4073 26.831 76.9231C27.1283 73.439 24.6593 70.0613 24.6593 70.0613ZM23.946 85.7502C15.831 75.446 10.0075 76.1979 10.0075 76.1979C13.1706 87.6622 23.946 85.7502 23.946 85.7502Z" fill="#FAB937"/>
<path d="M94.0011 25.8657C94.0011 25.8657 95.067 20.8769 89.4763 18.2717C89.4763 18.2717 89.6711 22.6723 94.0011 25.8657ZM91.8795 26.1522C89.2237 22.2941 84.665 23.4324 84.665 23.4324C87.0367 26.8576 91.8795 26.1522 91.8795 26.1522ZM87.9165 20.2772C87.2969 15.5876 82.5433 14.9751 82.5433 14.9751C83.5275 18.3366 87.9165 20.2772 87.9165 20.2772ZM80.0949 19.6558C80.0949 19.6558 81.7138 22.1082 86.2197 21.2805C86.2197 21.2805 84.034 18.604 80.0949 19.6558ZM82.1173 17.6274C82.1173 17.6274 79.8385 14.8732 75.873 15.8932C75.873 15.8932 77.7559 18.5009 82.1173 17.6274ZM96.124 23.5623C96.124 23.5623 95.6803 28.1946 99.6596 32.8193C99.6596 32.8193 102.287 27.3199 96.124 23.5623ZM89.6674 28.2557C92.1849 32.9683 97.538 32.7454 97.538 32.7454C94.5831 27.6649 89.6674 28.2557 89.6674 28.2557ZM104.196 42.5283C104.196 42.5283 109.849 36.8493 103.303 29.3253C103.303 29.3253 101.693 32.5035 102.528 36.4559C103.361 40.4095 103.535 39.5946 104.196 42.5283ZM109.682 39.1005C109.682 39.1005 106.997 41.8764 106.605 46.2578C106.214 50.638 106.87 51.2479 106.877 53.5272C106.877 53.5272 114.09 49.0578 109.682 39.1005ZM94.4926 34.7547C96.2057 40.8208 102.206 41.6319 102.206 41.6319C99.4937 34.2785 94.4926 34.7547 94.4926 34.7547ZM98.1048 42.9218C98.7496 49.4207 105.035 51.8082 105.035 51.8082C103.892 43.5686 98.1048 42.9218 98.1048 42.9218ZM107.017 65.5663C107.017 65.5663 116.1 61.3593 113.309 50.8048C113.309 50.8048 109.936 52.7657 108.576 56.932C107.216 61.0996 107.543 63.0503 107.017 65.5663ZM105.532 62.5562C106.398 54.034 100.226 51.9508 100.226 51.9508C99.7501 59.0623 105.532 62.5562 105.532 62.5562ZM114.805 63.417C114.805 63.417 110.327 64.8571 107.612 69.4716C104.898 74.0848 104.966 75.3607 104.324 76.6785C104.324 76.6785 114.999 74.407 114.805 63.417ZM100.524 61.4179C100.524 61.4179 98.1011 66.7875 103.303 73.9014C103.303 73.9014 106.933 66.6894 100.524 61.4179ZM98.3839 70.2967C98.3839 70.2967 95.9518 73.6888 96.2447 77.1879C96.5375 80.6869 96.9674 83.1419 96.8002 85.7764C96.8002 85.7764 104.037 79.2608 98.3839 70.2967ZM99.0865 86.0527C99.0865 86.0527 109.701 87.9728 112.817 76.4595C112.817 76.4595 107.08 75.7045 99.0865 86.0527ZM90.3235 92.3199C90.3235 92.3199 99.4535 97.5991 106.875 88.4987C106.875 88.4987 101.076 86.1571 90.3235 92.3199ZM94.0728 79.9013C91.8895 82.0621 89.8546 84.4457 89.3657 86.8561C88.7624 89.8433 88.2031 91.6514 88.2031 91.6514C96.8077 87.4533 94.0728 79.9013 94.0728 79.9013Z" fill="#FAB937"/>
<path d="M15.9727 88.8403C23.4997 97.999 32.7591 92.686 32.7591 92.686C21.8541 86.4836 15.9727 88.8403 15.9727 88.8403ZM28.9567 80.1877C28.9567 80.1877 26.1829 87.7882 34.9095 92.0132C34.9095 92.0132 34.3435 90.1935 33.7304 87.1871C33.2358 84.7613 31.1708 82.3624 28.9567 80.1877ZM61.3746 27.1636L64.3778 35.1178H58.3332L61.3746 27.1636ZM54.2134 46.1501L56.1382 41.1536H66.5346L68.4976 46.1501H76.5065L65.033 17.9702H57.8322L46.3587 46.1501H54.2134ZM43.3887 56.9082H48.2784C50.7819 56.9082 52.3217 58.0359 52.3217 60.249V60.3298C52.3217 62.3827 50.8584 63.6719 48.3179 63.6719H43.3887V56.9082ZM43.3887 68.917H46.1064L52.091 78.3257H60.7156L54.2848 68.5031C57.6347 67.0127 59.8297 64.155 59.8297 59.8466V59.7672C59.8297 56.9889 59.0215 54.8155 57.4422 53.2047C55.6334 51.2722 52.7832 50.1445 48.6634 50.1445H35.919V78.3257H43.3887V68.917ZM63.1643 64.2344V64.3113C63.1643 72.0925 69.0164 78.3257 76.9144 78.3257C82.9666 78.3257 87.8601 74.6209 89.8181 69.3911L82.5791 68.1186C81.4969 70.1588 79.5186 71.5504 76.9883 71.5504C73.112 71.5504 70.4428 68.1455 70.4428 64.2344V64.1563C70.4428 60.2477 73.0393 56.9197 76.9144 56.9197C79.4255 56.9197 81.4242 58.3217 82.5345 60.3592L89.8487 59.0726C87.9264 53.8301 83.0635 50.1445 76.9883 50.1445C69.089 50.1445 63.1643 56.4533 63.1643 64.2344ZM47.8986 100.831H49.3364V94.4058H47.8986V100.831ZM54.541 94.4058H50.0146V95.9653H51.562V100.831H52.9922V95.9653H54.541V94.4058ZM56.063 98.3156L56.6455 96.501L57.2204 98.3156H56.063ZM55.9661 94.4058L53.7698 100.831H55.2739L55.6423 99.6919H57.6334L58.0094 100.831H59.5429L57.3453 94.4058H55.9661ZM62.6748 98.2976H65.1515V96.8931H62.6748V95.9205H65.4103V94.4058H61.2599V100.831H65.4472V99.3164H62.6748V98.2976ZM68.3293 96.8547C67.6142 96.6599 67.4383 96.5356 67.4383 96.2511V96.2332C67.4383 96.0115 67.6078 95.8346 67.9546 95.8346C68.4109 95.8346 68.9271 96.0473 69.3988 96.4472L70.1139 95.231C69.5543 94.689 68.8685 94.4058 67.9902 94.4058C66.7525 94.4058 65.9928 95.24 65.9928 96.3933V96.4113C65.9928 97.6889 66.8405 98.0618 67.9393 98.363C68.6391 98.5591 68.8086 98.7013 68.8086 98.9589V98.9755C68.8086 99.2421 68.6021 99.4023 68.2197 99.4023C67.6219 99.4023 67.0546 99.1447 66.546 98.6564L65.7493 99.8021C66.3829 100.485 67.2535 100.831 68.1674 100.831C69.4205 100.831 70.2541 100.076 70.2541 98.8077V98.7897C70.2541 97.6274 69.5173 97.1661 68.3293 96.8547ZM70.4402 95.9653H71.9877V100.831H73.4192V95.9653H74.9666V94.4058H70.4402V95.9653Z" fill="#FAB937"/>
<path d="M148.383 34.0025L139.293 22.1589H137.769V36.9376H139.355V24.8201L148.672 36.9376H149.97V22.1589H148.383V34.0025ZM165.502 31.8649C165.22 32.5796 164.832 33.2025 164.336 33.7324C163.842 34.2637 163.247 34.6815 162.553 34.9885C161.859 35.2943 161.1 35.4471 160.276 35.4471C159.452 35.4471 158.693 35.2904 157.999 34.9783C157.305 34.6649 156.703 34.2433 156.195 33.7121C155.687 33.1821 155.291 32.5553 155.01 31.8343C154.728 31.1133 154.587 30.3438 154.587 29.5273C154.587 28.7119 154.728 27.9463 155.01 27.2317C155.291 26.517 155.679 25.8953 156.175 25.3641C156.669 24.8329 157.264 24.415 157.957 24.1093C158.651 23.8023 159.41 23.6494 160.235 23.6494C161.059 23.6494 161.818 23.8061 162.512 24.1195C163.207 24.4316 163.808 24.8533 164.316 25.3845C164.824 25.9157 165.22 26.5412 165.502 27.2622C165.783 27.9833 165.923 28.7527 165.923 29.5693C165.923 30.3846 165.783 31.1502 165.502 31.8649ZM165.593 24.3539C164.948 23.68 164.176 23.1462 163.275 22.7513C162.375 22.3564 161.375 22.1602 160.276 22.1602C159.177 22.1602 158.173 22.3602 157.266 22.7615C156.36 23.1628 155.583 23.7042 154.938 24.3845C154.291 25.0647 153.791 25.8507 153.433 26.7412C153.076 27.6329 152.897 28.5756 152.897 29.5693C152.897 30.5617 153.072 31.5044 153.423 32.3961C153.773 33.2878 154.271 34.07 154.917 34.7427C155.562 35.4166 156.335 35.9516 157.236 36.3452C158.136 36.7402 159.136 36.9376 160.235 36.9376C161.334 36.9376 162.337 36.7363 163.245 36.3351C164.152 35.9338 164.927 35.3936 165.573 34.7121C166.219 34.0318 166.72 33.2458 167.078 32.3553C167.435 31.4636 167.615 30.5209 167.615 29.5273C167.615 28.5349 167.439 27.5922 167.089 26.7004C166.738 25.81 166.24 25.0278 165.593 24.3539ZM179.837 22.1589H168.521V23.7004H173.365V36.9376H174.993V23.7004H179.837V22.1589ZM183.321 31.5923L186.618 24.1093L189.895 31.5923H183.321ZM185.876 22.1589L179.301 36.9376H180.971L182.681 33.0598H190.535L192.225 36.9376H193.976L187.402 22.1589H185.876ZM197.934 29.7171V23.7004H202.397C203.569 23.7004 204.478 23.959 205.125 24.4736C205.772 24.9896 206.096 25.7132 206.096 26.6457C206.096 27.1259 206.003 27.5565 205.817 27.9374C205.631 28.3183 205.374 28.6406 205.042 28.9018C204.711 29.1629 204.319 29.3642 203.864 29.5056C203.41 29.647 202.914 29.7171 202.377 29.7171H197.934ZM205.375 30.3973C205.856 30.1578 206.271 29.8585 206.622 29.4992C206.972 29.14 207.243 28.717 207.436 28.2317C207.628 27.7463 207.725 27.1934 207.725 26.5743C207.725 25.9119 207.601 25.3106 207.353 24.7679C207.106 24.2265 206.755 23.7615 206.302 23.3742C205.849 22.987 205.304 22.6876 204.664 22.4761C204.025 22.2659 203.306 22.1589 202.509 22.1589H196.305V36.9376H197.934V31.1948H202.057L206.241 36.9376H208.241L203.808 30.9031C204.371 30.805 204.893 30.6368 205.375 30.3973ZM218.958 31.5923L222.255 24.1093L225.532 31.5923H218.958ZM223.039 22.1589H221.514L214.938 36.9376H216.608L218.319 33.0598H226.172L227.862 36.9376H229.614L223.039 22.1589ZM210.834 36.9376H212.668V22.1589H210.834V36.9376ZM212.812 18.9678L210.599 20.857H212.833L215.048 18.9678H212.812Z" fill="#FAB937"/>
<path d="M145.291 47.058L147.807 52.6999H142.76L145.291 47.058ZM141.812 54.8248H148.75L150.351 58.4319H152.855L146.283 43.9258H144.341L137.769 58.4319H140.192L141.812 54.8248ZM164.304 56.2343H156.612V43.9258H154.303V58.4332H164.304V56.2343ZM176.642 56.2544H168.208V52.2087H175.666V50.0312H168.208V46.1033H176.545V43.9258H165.899V58.4319H176.642V56.2544ZM179.65 57.6902C180.387 58.1826 181.319 58.4332 182.421 58.4332C183.076 58.4332 183.693 58.3267 184.254 58.1174C184.828 57.9045 185.329 57.5762 185.74 57.1414C186.148 56.7104 186.471 56.1717 186.7 55.5377C186.927 54.9113 187.041 54.1808 187.041 53.3664V43.9258H184.732V53.3865C184.732 54.355 184.509 55.0854 184.071 55.559C183.635 56.0301 183.103 56.2594 182.44 56.2594C181.808 56.2594 181.281 56.1166 180.875 55.8334C180.443 55.534 180.026 55.0842 179.638 54.4953L179.399 54.132L177.706 55.574L177.876 55.8497C178.333 56.5902 178.93 57.2091 179.65 57.6902ZM195.328 47.058L197.844 52.6986H192.797L195.328 47.058ZM191.85 54.8261H198.788L200.389 58.4332H202.892L196.32 43.9258H194.378L187.806 58.4332H190.23L191.85 54.8261ZM206.393 47.8937L214.644 58.4319H216.446V43.9258H214.174V54.2084L206.252 44.0724L206.137 43.9258H204.121V58.4319H206.393V47.8937ZM221.366 46.1234H224.183C224.989 46.1234 225.729 46.2562 226.382 46.518C227.033 46.7786 227.591 47.1395 228.039 47.5905C228.489 48.0416 228.841 48.5841 229.088 49.2005C229.335 49.8195 229.461 50.4923 229.461 51.1989C229.461 51.9168 229.335 52.5884 229.088 53.1948C228.842 53.7987 228.489 54.3349 228.039 54.7872C227.591 55.2383 227.035 55.5953 226.385 55.8484C225.731 56.1053 224.99 56.2343 224.183 56.2343H221.366V46.1234ZM227.263 57.8756C228.198 57.5048 229.013 56.9898 229.69 56.3433C230.37 55.6943 230.902 54.915 231.273 54.0242C231.642 53.1384 231.829 52.1737 231.829 51.1588C231.829 50.1452 231.642 49.1842 231.272 48.3022C230.902 47.4201 230.37 46.6433 229.691 45.9943H229.69C229.013 45.3478 228.195 44.8354 227.26 44.472C226.328 44.1087 225.293 43.9258 224.183 43.9258H219.055V58.4332H224.183C225.294 58.4332 226.33 58.2452 227.263 57.8756ZM236.143 46.1234H239.988C241.002 46.1234 241.793 46.3376 242.334 46.7611C242.854 47.167 243.106 47.7296 243.106 48.4788C243.106 48.8647 243.032 49.2118 242.882 49.5112C242.733 49.8119 242.522 50.07 242.256 50.2755C241.981 50.4885 241.647 50.6564 241.264 50.7742C240.872 50.8932 240.436 50.9533 239.967 50.9533H236.143V46.1234ZM236.143 53.092H239.471L243.433 58.4332H246.286L241.985 52.6836C242.332 52.5884 242.664 52.4643 242.976 52.3115C243.469 52.0709 243.901 51.7652 244.26 51.4019C244.628 51.0335 244.915 50.595 245.115 50.0976C245.316 49.6027 245.417 49.0351 245.417 48.4124C245.417 47.7446 245.286 47.1257 245.029 46.5732C244.772 46.0194 244.404 45.5395 243.932 45.1449C243.467 44.754 242.902 44.4495 242.253 44.239C241.612 44.031 240.884 43.9258 240.094 43.9258H233.834V58.4332H236.143V53.092ZM258.819 53.1973C258.571 53.815 258.225 54.36 257.792 54.816C257.361 55.2696 256.836 55.6329 256.229 55.896C255.623 56.1592 254.951 56.292 254.227 56.292C253.504 56.292 252.831 56.1566 252.228 55.8885C251.619 55.6179 251.085 55.2495 250.639 54.7935C250.194 54.3374 249.844 53.7912 249.597 53.1697C249.349 52.5458 249.224 51.8692 249.224 51.1601C249.224 50.4509 249.349 49.7781 249.596 49.1617C249.844 48.544 250.189 47.999 250.623 47.5417C251.054 47.0881 251.58 46.7235 252.187 46.4617C252.791 46.1986 253.465 46.0657 254.188 46.0657C254.91 46.0657 255.583 46.2023 256.187 46.4692C256.796 46.7398 257.331 47.1082 257.777 47.5642C258.22 48.0203 258.571 48.5665 258.818 49.188C259.066 49.8132 259.192 50.4898 259.192 51.1976C259.192 51.9068 259.066 52.5796 258.819 53.1973ZM261.036 48.3911C260.688 47.5191 260.185 46.7436 259.542 46.0833C258.898 45.4243 258.118 44.8943 257.222 44.5084C256.324 44.1212 255.317 43.9258 254.227 43.9258C253.138 43.9258 252.127 44.125 251.221 44.5184C250.321 44.9106 249.536 45.4468 248.893 46.1134C248.251 46.7786 247.744 47.5567 247.389 48.4275C247.035 49.297 246.855 50.2292 246.855 51.1976C246.855 52.1661 247.031 53.0971 247.379 53.9666C247.728 54.8386 248.23 55.6154 248.874 56.2744C249.517 56.9347 250.298 57.4647 251.193 57.8506C252.09 58.2365 253.099 58.4332 254.188 58.4332C255.278 58.4332 256.29 58.2327 257.194 57.8406C258.095 57.4484 258.879 56.9109 259.523 56.2444C260.165 55.5803 260.67 54.8023 261.026 53.9315C261.381 53.0607 261.561 52.1286 261.561 51.1601C261.561 50.1928 261.385 49.2607 261.036 48.3911ZM149.577 96.6243L149.31 96.8736C148.688 97.4537 148.05 97.9085 147.41 98.2255C146.791 98.5337 146.034 98.689 145.163 98.689C144.466 98.689 143.812 98.5562 143.221 98.2944C142.625 98.0313 142.102 97.6667 141.664 97.2119C141.224 96.7546 140.877 96.2083 140.629 95.5856C140.382 94.9617 140.255 94.2788 140.255 93.5571C140.255 92.8355 140.382 92.1576 140.629 91.5387C140.877 90.9223 141.224 90.3785 141.664 89.9212C142.101 89.4677 142.624 89.1068 143.218 88.85C143.811 88.5931 144.465 88.4628 145.163 88.4628C146.033 88.4628 146.784 88.6219 147.396 88.9339C148.033 89.2597 148.639 89.6807 149.196 90.1868L149.476 90.4412L151.052 88.7936L150.776 88.5355C150.427 88.2097 150.059 87.9078 149.683 87.6384C149.296 87.364 148.872 87.1272 148.42 86.933C147.967 86.7401 147.472 86.5885 146.948 86.482C146.423 86.3767 145.829 86.3229 145.182 86.3229C144.132 86.3229 143.147 86.5158 142.257 86.8954C141.367 87.2751 140.59 87.8013 139.946 88.4616C139.303 89.1206 138.793 89.8987 138.432 90.7757C138.07 91.6515 137.888 92.6012 137.888 93.5947C137.888 94.6021 138.07 95.5568 138.432 96.4338C138.795 97.3121 139.305 98.0851 139.949 98.7316C140.592 99.3781 141.362 99.8943 142.238 100.266C143.116 100.64 144.086 100.829 145.123 100.829C145.773 100.829 146.374 100.769 146.907 100.649C147.439 100.53 147.945 100.362 148.41 100.149C148.873 99.9357 149.314 99.6763 149.718 99.3756C150.116 99.0812 150.502 98.7454 150.865 98.3796L151.133 98.109L149.577 96.6243ZM156.022 95.0957L158.553 89.4564L161.068 95.0957H156.022ZM157.603 86.3229L151.03 100.83H153.454L155.074 97.2231H162.013L163.613 100.83H166.117L159.544 86.3229H157.603ZM173.479 93.3504H169.656V88.5205H173.499C174.515 88.5205 175.304 88.7347 175.845 89.1582C176.366 89.5641 176.618 90.1267 176.618 90.8759C176.618 91.2606 176.543 91.6089 176.394 91.9083C176.244 92.209 176.034 92.4671 175.768 92.6726C175.493 92.8868 175.159 93.0535 174.776 93.17C174.384 93.2903 173.948 93.3504 173.479 93.3504ZM176.488 94.7086H176.489C176.98 94.468 177.412 94.1623 177.773 93.799C178.14 93.4306 178.427 92.9921 178.627 92.4947C178.827 91.9998 178.929 91.4322 178.929 90.8108C178.929 90.1417 178.798 89.5228 178.541 88.9703C178.284 88.4165 177.915 87.9366 177.445 87.5419C176.979 87.1523 176.414 86.8466 175.764 86.6361C175.123 86.4281 174.396 86.3229 173.606 86.3229H167.345V100.829H169.656V95.4891H172.982L176.946 100.829H179.798L175.497 95.0807C175.844 94.9855 176.176 94.8614 176.488 94.7086ZM198.209 95.0957L200.74 89.4564L203.255 95.0957H198.209ZM187.106 93.3504H183.281V88.5205H187.125C188.141 88.5205 188.93 88.7347 189.472 89.1582C189.992 89.5654 190.245 90.1267 190.245 90.8759C190.245 91.2618 190.169 91.6089 190.021 91.9083C189.871 92.2103 189.66 92.4671 189.395 92.6726C189.12 92.8856 188.786 93.0535 188.403 93.17C188.01 93.2903 187.573 93.3504 187.106 93.3504ZM199.79 86.3229L193.295 100.657L189.124 95.0807C189.471 94.9855 189.803 94.8614 190.114 94.7086C190.607 94.468 191.039 94.1623 191.399 93.8002C191.765 93.4306 192.053 92.9921 192.254 92.4947C192.454 91.9998 192.554 91.4322 192.554 90.8108C192.554 90.1417 192.425 89.5228 192.168 88.9703C191.911 88.4165 191.542 87.9366 191.071 87.5419C190.606 87.1523 190.041 86.8466 189.391 86.6361C188.749 86.4281 188.023 86.3229 187.231 86.3229H180.972V100.83H183.281V95.4891H186.609L190.572 100.83H195.64L197.262 97.2231H204.2L205.801 100.83H208.304L201.731 86.3229H199.79ZM219.586 96.6055L211.664 86.4695L211.548 86.3229H209.533V100.829H211.803V90.2908L220.056 100.829H221.857V86.3229H219.586V96.6055ZM224.135 88.4616H232.284L223.841 99.2742V100.83H235.561V98.6903H227.101L235.561 87.879V86.3229H224.135V88.4616ZM241.117 95.0957L243.649 89.4564L246.164 95.0957H241.117ZM242.698 86.3229L236.126 100.83H238.55L240.17 97.2231H247.109L248.709 100.83H251.212L244.64 86.3229H242.698ZM146.288 71.5135C146.008 71.7328 145.668 71.9044 145.278 72.0234C144.882 72.1462 144.439 72.2076 143.967 72.2076H140.088V67.2248H143.986C145.013 67.2248 145.814 67.4453 146.365 67.8788C146.893 68.2948 147.16 68.8924 147.16 69.6567C147.16 70.0539 147.083 70.4122 146.93 70.7229C146.777 71.0349 146.56 71.3005 146.288 71.5135ZM157.6 68.0893L160.201 73.9655H154.983L157.6 68.0893ZM148.221 72.5622C148.582 72.1964 148.866 71.7603 149.063 71.2654C149.261 70.773 149.361 70.2092 149.361 69.5903C149.361 68.925 149.232 68.3098 148.978 67.7598C148.725 67.211 148.361 66.7324 147.896 66.3403C147.437 65.9519 146.878 65.6474 146.234 65.4382C145.599 65.2302 144.878 65.125 144.092 65.125H137.888V79.6311H140.088V74.2486H143.496L147.459 79.6311H152.467L154.087 75.9964H161.095L162.696 79.6311H165.078L158.556 65.125H156.685L150.167 79.6236L145.89 73.8602C146.262 73.7625 146.618 73.6309 146.951 73.4668C147.439 73.2275 147.866 72.923 148.221 72.5622ZM173.096 72.4194L168.297 65.1375H166.228V79.6311H168.389V69.1906L172.863 75.8348H173.293L177.766 69.1743V79.6311H179.966V65.1375H177.898L173.096 72.4194ZM185.022 65.1362H182.822V79.6311H185.022V65.1362ZM190.078 67.2248H193.977C195.004 67.2248 195.805 67.4453 196.356 67.8788C196.883 68.2948 197.151 68.8924 197.151 69.6567C197.151 70.0539 197.073 70.4122 196.921 70.7229C196.766 71.0349 196.551 71.3005 196.279 71.5135C195.999 71.7328 195.658 71.9044 195.269 72.0234C194.871 72.1462 194.43 72.2076 193.957 72.2076H190.078V67.2248ZM190.078 74.2486H193.487L197.45 79.6311H200.163L195.88 73.8602C196.253 73.7625 196.609 73.6309 196.942 73.4668C197.429 73.2275 197.856 72.923 198.212 72.5622C198.573 72.1964 198.856 71.7603 199.054 71.2654C199.252 70.773 199.351 70.2092 199.351 69.5903C199.351 68.925 199.223 68.3098 198.969 67.7598C198.716 67.2098 198.352 66.7324 197.887 66.3403C197.428 65.9519 196.869 65.6474 196.225 65.4382C195.589 65.2289 194.869 65.125 194.083 65.125H187.877V79.6311H190.078V74.2486ZM212.259 67.2048V65.1237H201.723V79.6311H212.357V77.55H203.924V73.359H211.381V71.278H203.924V67.2048H212.259ZM225.958 66.6147V65.1237H214.641V67.1659H222.851L214.348 78.1401V79.6311H225.958V77.5901H217.438L225.89 66.7036L225.958 66.6147ZM187.877 61.6569H185.196L182.542 63.8971H185.222L187.877 61.6569Z" fill="white"/>
</svg>
