<svg width="104" height="116" viewBox="0 0 104 116" fill="none" xmlns="http://www.w3.org/2000/svg">
<path d="M45.0601 105.24H89.28C95.91 105.24 101.29 99.86 101.29 93.23V14.0099C101.29 7.37989 95.91 2 89.28 2H28.01C21.38 2 16 7.37989 16 14.0099V65.6799M81.76 53.6299H56.4301M35.54 27.8199H81.76M81.76 79.4299H68.9601" stroke="white" stroke-width="4" stroke-linecap="round" stroke-linejoin="round"/>
<path d="M26.9401 113.04C40.714 113.04 51.88 101.874 51.88 88.1002C51.88 74.3262 40.714 63.1602 26.9401 63.1602C13.1661 63.1602 2 74.3262 2 88.1002C2 101.874 13.1661 113.04 26.9401 113.04Z" stroke="#FAB937" stroke-width="4" stroke-linecap="round" stroke-linejoin="round"/>
<path d="M30.3699 77.6394H26.9399C24.0499 77.6394 21.71 79.9795 21.71 82.8695C21.71 85.7595 24.0499 88.0995 26.9399 88.0995C29.8299 88.0995 32.1699 90.4395 32.1699 93.3295C32.1699 96.2195 29.8299 98.5594 26.9399 98.5594H23.5099M26.95 100.519V98.5594M26.95 77.6394V75.6895" stroke="#FAB937" stroke-width="4" stroke-linecap="round" stroke-linejoin="round"/>
</svg>
