<svg width="146" height="90" viewBox="0 0 146 90" fill="none" xmlns="http://www.w3.org/2000/svg">
<path d="M66.1065 56.4097H44.0764C40.2364 56.4097 36.4964 55.1897 33.3864 52.9297L6.25647 33.1497C1.11647 29.3997 0.536443 21.9498 5.03644 17.4598C8.17644 14.3198 12.9764 13.5298 16.9664 15.4998L34.3665 24.1298C36.8765 25.3698 39.6265 26.0197 42.4265 26.0197H128.036C132.716 26.0197 136.716 28.9397 138.326 33.0497L142.536 41.2997C145.866 47.8197 141.626 55.8997 134.316 56.3897C134.066 56.4097 133.816 56.4197 133.556 56.4197H96.2365" stroke="white" stroke-width="4" stroke-linecap="round" stroke-linejoin="round"/>
<path d="M71.2863 47.8698L47.2163 87.5697H70.2263L104.096 47.0098" stroke="#FAB937" stroke-width="4" stroke-linecap="round" stroke-linejoin="round"/>
<path d="M61.4763 26.0199L47.2163 2H70.2163L89.8463 26.0199M121.196 38.97H122.496" stroke="white" stroke-width="4" stroke-linecap="round" stroke-linejoin="round"/>
</svg>
