<svg width="127" height="100" viewBox="0 0 127 100" fill="none" xmlns="http://www.w3.org/2000/svg">
<path d="M2 50.79L63.45 2L124.9 50.79" stroke="white" stroke-width="4" stroke-linecap="round" stroke-linejoin="round"/>
<path d="M84.6001 18.8V2H100.69V31.5701" stroke="white" stroke-width="4" stroke-linecap="round" stroke-linejoin="round"/>
<path d="M38.6602 59.03C38.6602 45.34 49.7602 34.25 63.4402 34.25C77.1202 34.25 88.2202 45.35 88.2202 59.03" stroke="#FAB937" stroke-width="4" stroke-linecap="round" stroke-linejoin="round"/>
<path d="M67.8299 55.8301H63.4499C60.2399 55.8301 57.6299 58.43 57.6299 61.65C57.6299 64.87 60.2299 67.47 63.4499 67.47C66.6699 67.47 69.2699 70.07 69.2699 73.29C69.2699 76.51 66.6699 79.11 63.4499 79.11H59.0699M63.4499 83.89V79.1M63.4499 55.84V50.79" stroke="#FAB937" stroke-width="4" stroke-linecap="round" stroke-linejoin="round"/>
<path d="M38.6602 59.0303V97.9503M88.2302 59.0303V97.9503" stroke="#FAB937" stroke-width="4" stroke-linecap="round" stroke-linejoin="round"/>
<path d="M107.18 36.73V97.9501H19.71V36.73" stroke="white" stroke-width="4" stroke-linecap="round" stroke-linejoin="round"/>
</svg>
