<svg width="116" height="108" viewBox="0 0 116 108" fill="none" xmlns="http://www.w3.org/2000/svg">
<path d="M106.89 2H8.13C4.7445 2 2 4.7445 2 8.13V79.3099C2 82.6954 4.7445 85.4399 8.13 85.4399H106.89C110.276 85.4399 113.02 82.6954 113.02 79.3099V8.13C113.02 4.7445 110.276 2 106.89 2Z" stroke="white" stroke-width="4" stroke-linecap="round" stroke-linejoin="round"/>
<path d="M57.51 85.4399V105.62M14.59 105.62H100.43M2 69.25H113.03" stroke="white" stroke-width="4" stroke-linecap="round" stroke-linejoin="round"/>
<path d="M57.5099 54.9797C67.937 54.9797 76.3899 46.5269 76.3899 36.0997C76.3899 25.6726 67.937 17.2197 57.5099 17.2197C47.0828 17.2197 38.6299 25.6726 38.6299 36.0997C38.6299 46.5269 47.0828 54.9797 57.5099 54.9797Z" stroke="#FAB937" stroke-width="4" stroke-linecap="round" stroke-linejoin="round"/>
<path d="M49.7197 37.6896L54.2498 42.2196L65.3097 31.1597" stroke="#FAB937" stroke-width="4" stroke-linecap="round" stroke-linejoin="round"/>
</svg>
