<svg width="142" height="92" viewBox="0 0 142 92" fill="none" xmlns="http://www.w3.org/2000/svg">
<path d="M23.9399 15.1399H31.1199C33.4399 15.1399 35.7199 14.5299 37.7499 13.3899C49.0199 7.02992 59.98 1.40984 68.27 2.04984M23.9399 65.93H31.9799L56.4 85.0098C62.12 89.4798 69.8099 90.5398 76.5399 87.8098C91.4599 81.7698 104.8 75.59 112.58 68.93" stroke="white" stroke-width="4" stroke-linecap="round" stroke-linejoin="round"/>
<path d="M19.88 8.57031H6.06C3.81772 8.57031 2 10.3881 2 12.6304V69.3904C2 71.6327 3.81772 73.4504 6.06 73.4504H19.88C22.1223 73.4504 23.94 71.6327 23.94 69.3904V12.6304C23.94 10.3881 22.1223 8.57031 19.88 8.57031Z" stroke="white" stroke-width="4" stroke-linecap="round" stroke-linejoin="round"/>
<path d="M117.91 66.0999L113.59 68.3399C111.41 69.4699 108.73 68.9599 107.13 67.0999L72.4502 26.9099C70.7902 24.9899 67.9202 24.68 65.8902 26.21L55.0702 34.3599C49.4002 38.6299 41.3501 37.6098 36.9301 32.0498C34.9201 29.5298 35.3202 25.8698 37.8202 23.8298L60.2602 5.57985C64.8902 1.80985 71.2602 0.989957 76.7002 3.43996L106.94 17.0799C107.76 17.4499 108.66 17.6399 109.56 17.6399H117.9" stroke="#FAB937" stroke-width="4" stroke-linecap="round" stroke-linejoin="round"/>
<path d="M135.79 11.9697H121.97C119.728 11.9697 117.91 13.7873 117.91 16.0295V69.3896C117.91 71.6319 119.728 73.4497 121.97 73.4497H135.79C138.032 73.4497 139.85 71.6319 139.85 69.3896V16.0295C139.85 13.7873 138.032 11.9697 135.79 11.9697Z" stroke="#FAB937" stroke-width="4" stroke-linecap="round" stroke-linejoin="round"/>
</svg>
