<svg width="12" height="12" viewBox="0 0 12 12" fill="none" xmlns="http://www.w3.org/2000/svg">
<path d="M0.416748 2.48047C0.416748 2.48047 1.59891 10.2197 9.7228 11.5819M9.7228 11.5819C10.7466 11.5819 11.5767 10.7109 11.5767 9.63667C11.5767 8.56249 10.7466 7.6914 9.7228 7.6914C8.69905 7.6914 7.86885 8.56249 7.86885 9.63667C7.86885 10.7109 8.69905 11.5819 9.7228 11.5819Z" stroke="#7C0600" stroke-width="0.842939" stroke-linejoin="round"/>
<path d="M4.12928 2.36715C4.12928 3.44133 3.29908 4.31242 2.27533 4.31242C1.25158 4.31242 0.421387 3.44133 0.421387 2.36715C0.421387 1.29297 1.25158 0.421875 2.27533 0.421875C3.29908 0.421875 4.12928 1.29297 4.12928 2.36715Z" stroke="#7C0600" stroke-width="0.842939" stroke-linejoin="round"/>
</svg>
