<svg width="12" height="12" viewBox="0 0 12 12" fill="none" xmlns="http://www.w3.org/2000/svg">
<path fill-rule="evenodd" clip-rule="evenodd" d="M11.1529 5.29393C11.0791 2.35698 8.65755 0.000976562 5.67792 0.000976562C2.69828 0.000976562 0.336714 2.30628 0.207566 5.19712C0.207566 5.2755 0.202949 5.35389 0.202949 5.43688C0.202949 6.46505 0.488926 7.42398 0.98707 8.24466L0 11.1585L3.035 10.1949C3.81911 10.6237 4.72315 10.8726 5.68253 10.8726C8.7083 10.8726 11.1575 8.43827 11.1575 5.44139V5.30316L11.1529 5.29393ZM5.67792 10.0013C4.74159 10.0013 3.87446 9.72463 3.14569 9.24513L1.3745 9.80772L1.94647 8.11094C1.39297 7.35941 1.07009 6.43266 1.07009 5.43216C1.07009 5.28462 1.07931 5.1371 1.09315 4.98956C1.31916 2.67965 3.28867 0.867714 5.6733 0.867714C8.05793 0.867714 10.0782 2.72573 10.2627 5.07713C10.2719 5.19701 10.2765 5.31228 10.2765 5.43216C10.2765 7.94954 8.21014 10.0013 5.6733 10.0013H5.67792Z" fill="#7C0600"/>
<path fill-rule="evenodd" clip-rule="evenodd" d="M8.22293 6.60727C8.09213 6.54513 7.44712 6.23003 7.32534 6.19009C7.20355 6.1457 7.11786 6.12801 7.02765 6.25229C6.94195 6.381 6.68483 6.66944 6.61266 6.75377C6.53598 6.8381 6.4593 6.85156 6.3285 6.78498C6.19769 6.72284 5.77371 6.58961 5.27304 6.15021C4.88513 5.81289 4.61901 5.39125 4.54233 5.26253C4.46565 5.13382 4.53332 5.06731 4.60097 5.00074C4.65961 4.94304 4.73178 4.84972 4.79944 4.77427C4.81748 4.75207 4.83101 4.73426 4.84905 4.71207C4.88062 4.66325 4.90317 4.61893 4.93024 4.56123C4.97534 4.4769 4.95278 4.40155 4.92121 4.33498C4.88963 4.2684 4.62353 3.63798 4.51527 3.38055C4.40702 3.12312 4.29875 3.16752 4.21756 3.16752C4.13637 3.16752 4.05518 3.1543 3.96497 3.1543C3.87476 3.1543 3.73495 3.1853 3.61316 3.31402C3.49138 3.44273 3.15308 3.75349 3.15308 4.38374C3.15308 4.53021 3.18015 4.6811 3.22075 4.81869C3.35155 5.27141 3.64022 5.64423 3.68983 5.70637C3.75298 5.7907 4.59644 7.1266 5.93157 7.64145C7.26669 8.15187 7.26669 7.9833 7.51026 7.96111C7.74932 7.94336 8.28608 7.65481 8.39434 7.353C8.50259 7.05563 8.50258 6.79815 8.47101 6.74489C8.43944 6.69163 8.34923 6.66052 8.21842 6.59839L8.22293 6.60727Z" fill="#7C0600"/>
</svg>
