<svg width="105" height="123" viewBox="0 0 105 123" fill="none" xmlns="http://www.w3.org/2000/svg">
<path d="M56.91 101.22H13.14C6.99001 101.22 2 96.23 2 90.08V13.14C2 6.99001 6.99001 2 13.14 2H71.5C77.65 2 82.64 6.99001 82.64 13.14V52.9099" stroke="white" stroke-width="4" stroke-linecap="round" stroke-linejoin="round"/>
<path d="M79.3701 49.1602C80.8001 52.7702 84.7601 54.6802 88.4701 53.5402C94.9201 51.5602 100.46 58.5103 97.1001 64.3603C95.1701 67.7303 96.1401 72.0102 99.3501 74.2002C104.92 78.0102 102.94 86.6702 96.2702 87.6902C92.4302 88.2802 89.6901 91.7102 89.9701 95.5802C90.4601 102.31 82.4602 106.16 77.5002 101.58C74.6502 98.9502 70.2502 98.9502 67.4002 101.58C62.4402 106.16 54.4402 102.31 54.9302 95.5802C55.2102 91.7102 52.4702 88.2702 48.6302 87.6902C41.9602 86.6702 39.9802 78.0102 45.5502 74.2002C48.7502 72.0102 49.7302 67.7203 47.8002 64.3603C44.4402 58.5103 49.9802 51.5602 56.4302 53.5402C60.1402 54.6802 64.1002 52.7702 65.5302 49.1602C68.0102 42.8802 76.8901 42.8802 79.3701 49.1602Z" stroke="#FAB937" stroke-width="4" stroke-linecap="round" stroke-linejoin="round"/>
<path d="M83.8199 103.47V120.61L72.45 114.65L61.0898 120.61V103.47" stroke="#FAB937" stroke-width="4" stroke-linecap="round" stroke-linejoin="round"/>
<path d="M72.4501 84.9401C77.393 84.9401 81.4 80.9331 81.4 75.9901C81.4 71.0472 77.393 67.04 72.4501 67.04C67.5071 67.04 63.5 71.0472 63.5 75.9901C63.5 80.9331 67.5071 84.9401 72.4501 84.9401Z" stroke="#FAB937" stroke-width="4" stroke-linecap="round" stroke-linejoin="round"/>
<path d="M26.7202 27.3301H57.9203" stroke="white" stroke-width="4" stroke-linecap="round" stroke-linejoin="round"/>
</svg>
