<svg width="135" height="109" viewBox="0 0 135 109" fill="none" xmlns="http://www.w3.org/2000/svg">
<path d="M109.512 61.6997L115.202 36.3997C116.022 32.7897 119.052 30.1198 122.732 29.7698C125.382 29.5198 127.842 30.5097 129.582 32.2397C131.092 33.7497 132.042 35.8397 132.072 38.1597L132.432 66.2397C132.522 72.6497 130.002 78.8196 125.472 83.3496L101.972 106.85" stroke="white" stroke-width="4" stroke-linecap="round" stroke-linejoin="round"/>
<path d="M76.3625 101.09C73.5125 81.6703 83.8325 78.5205 93.5825 68.7705L99.7525 62.6003C101.223 61.1303 103.142 60.4004 105.062 60.4004C106.992 60.4004 108.922 61.1303 110.392 62.6003C113.322 65.5303 113.322 70.3105 110.392 73.2505L97.7924 85.8503" stroke="white" stroke-width="4" stroke-linecap="round" stroke-linejoin="round"/>
<path d="M32.4623 106.86L8.96229 83.3596C4.43229 78.8296 1.91233 72.6598 2.00233 66.2498L2.36232 38.1697C2.39232 35.8497 3.35231 33.7498 4.85231 32.2498C6.58231 30.5198 9.04228 29.5295 11.7023 29.7795C15.3823 30.1195 18.4123 32.7997 19.2323 36.4097L24.9223 61.7097" stroke="white" stroke-width="4" stroke-linecap="round" stroke-linejoin="round"/>
<path d="M36.6223 85.8397L24.0222 73.2398C21.0922 70.3098 21.0922 65.5297 24.0222 62.5897C25.5022 61.1097 27.4223 60.3797 29.3523 60.3897C31.2723 60.3897 33.2022 61.1297 34.6622 62.5897L40.8323 68.7599C50.5823 78.5099 60.9022 81.6597 58.0522 101.08" stroke="white" stroke-width="4" stroke-linecap="round" stroke-linejoin="round"/>
<path d="M96.7825 37.4199L96.5625 37.6399L73.6026 60.6099C70.0726 64.1399 64.3526 64.1399 60.8226 60.6099L37.8626 37.6499L37.6326 37.4199C29.5326 29.3199 29.5326 16.1798 37.6326 8.06982C41.6926 4.01982 47.0025 2 52.3125 2C57.6225 2 62.9326 4.02982 66.9926 8.06982L67.2126 8.28979L67.4325 8.06982C71.4825 4.01982 76.8026 2 82.1026 2C87.4026 2 92.7225 4.02982 96.7825 8.06982C104.883 16.1698 104.883 29.3099 96.7825 37.4199Z" stroke="#FAB937" stroke-width="4" stroke-linecap="round" stroke-linejoin="round"/>
</svg>
