<svg width="60" height="60" viewBox="0 0 60 60" fill="none" xmlns="http://www.w3.org/2000/svg">
<path d="M23.2848 41.5091C26.3875 41.5091 28.9027 38.9941 28.9027 35.8917C28.9027 32.7894 26.3875 30.2744 23.2848 30.2744C20.1822 30.2744 17.667 32.7894 17.667 35.8917C17.667 38.9941 20.1822 41.5091 23.2848 41.5091Z" stroke="#212121" stroke-width="1.95312" stroke-linecap="round" stroke-linejoin="round"/>
<path d="M37.1258 33.5171C37.8672 37.8554 36.5619 42.4704 33.2152 45.822C27.7332 51.3036 18.8417 51.3036 13.3596 45.822C7.87752 40.3404 7.87752 31.4498 13.3596 25.9682C16.7063 22.6218 21.3217 21.3166 25.6604 22.0632" stroke="#212121" stroke-width="1.95312" stroke-linecap="round" stroke-linejoin="round"/>
<path d="M43.7147 26.928C47.3068 35.0982 45.7509 44.9755 39.0628 51.6683C30.3489 60.3814 16.2259 60.3814 7.512 51.6683C-1.20192 42.9552 -1.20192 28.8335 7.512 20.1204C14.2002 13.4276 24.0836 11.8771 32.2545 15.4636M44.6493 14.5292L50.2567 15.7612L58.2031 7.82073L52.5957 6.58867L51.3636 0.976562L43.4171 8.92226L44.6493 14.5292ZM44.6493 14.5292L27.258 31.9189" stroke="#212121" stroke-width="1.95312" stroke-linecap="round" stroke-linejoin="round"/>
</svg>
