<svg width="115" height="105" viewBox="0 0 115 105" fill="none" xmlns="http://www.w3.org/2000/svg">
<path d="M81.78 64.6599V90.03C81.78 96.97 76.15 102.6 69.21 102.6H14.5701C7.63007 102.6 2 96.97 2 90.03V24.9399C2 22.5299 2.96003 20.22 4.66003 18.52L18.53 4.65991C20.23 2.95991 22.54 2 24.95 2H69.21C76.15 2 81.78 7.63007 81.78 14.5701V37.3398" stroke="white" stroke-width="4" stroke-linecap="round" stroke-linejoin="round"/>
<path d="M67.2301 79.2203L48.9302 83.8602L53.5702 65.5604L95.5402 23.5902C99.3102 19.8202 105.43 19.8202 109.2 23.5902C112.97 27.3602 112.97 33.4804 109.2 37.2504L67.2301 79.2203Z" stroke="#FAB937" stroke-width="4" stroke-linecap="round" stroke-linejoin="round"/>
<path d="M21.1499 30.5996H62.6299M21.1499 51.0996H39.2098M21.1499 71.5996H39.2098" stroke="white" stroke-width="4" stroke-linecap="round" stroke-linejoin="round"/>
</svg>
