<svg width="109" height="119" viewBox="0 0 109 119" fill="none" xmlns="http://www.w3.org/2000/svg">
<path d="M99.0605 54.9299H9.59049L2.27042 18.3201C0.580422 9.88007 7.04043 2 15.6504 2H93.0104C101.62 2 108.07 9.88007 106.39 18.3201L99.0705 54.9299H99.0605ZM9.5004 54.9299H99.1404V102.42C99.1404 109.95 93.0304 116.06 85.5004 116.06H23.1404C15.6104 116.06 9.5004 109.95 9.5004 102.42V54.9299Z" stroke="white" stroke-width="4" stroke-linecap="round" stroke-linejoin="round"/>
<path d="M39.2106 84.2698C42.8943 84.2698 45.8805 81.2836 45.8805 77.5999C45.8805 73.9161 42.8943 70.9297 39.2106 70.9297C35.5268 70.9297 32.5405 73.9161 32.5405 77.5999C32.5405 81.2836 35.5268 84.2698 39.2106 84.2698Z" stroke="#FAB937" stroke-width="4" stroke-linecap="round" stroke-linejoin="round"/>
<path d="M66.8604 79.6602H81.5304M66.8604 89.3604H81.5304M52.4204 100.05C54.5004 100.05 56.0405 98.0703 55.4705 96.0703C53.5005 89.2503 47.2004 84.2603 39.7404 84.2603H38.7005C31.2305 84.2603 24.9405 89.2503 22.9705 96.0703C22.3905 98.0603 23.9404 100.05 26.0204 100.05H52.4305H52.4204Z" stroke="#FAB937" stroke-width="4" stroke-linecap="round" stroke-linejoin="round"/>
<path d="M39.9702 34.5801H68.6802" stroke="white" stroke-width="4" stroke-linecap="round" stroke-linejoin="round"/>
</svg>
