<svg width="122" height="115" viewBox="0 0 122 115" fill="none" xmlns="http://www.w3.org/2000/svg">
<path d="M86.5101 63.95V89.0999M14.6001 89.0999V37.96C14.6001 18.1 30.7001 2 50.5601 2C70.4201 2 86.5201 18.1 86.5201 37.96V45.6499" stroke="white" stroke-width="4" stroke-linecap="round" stroke-linejoin="round"/>
<path d="M6.65997 89.0996H94.45V100.79H6.65997V89.0996ZM2 100.8H99.11V112.49H2V100.8Z" stroke="white" stroke-width="4" stroke-linecap="round" stroke-linejoin="round"/>
<path d="M50.5599 20.5098V48.4998M40.1099 30.3296H61.0099M38.9399 63.6797H62.1799M38.9399 73.7598H62.1799" stroke="#FAB937" stroke-width="4" stroke-linecap="round" stroke-linejoin="round"/>
<path d="M103.16 42.8695C91.3499 52.4895 78.55 62.1797 74.46 71.2497M119.66 27.8695C119.09 43.7495 93.0399 69.2596 79.9899 63.2096C75.0899 48.3196 108.07 25.0795 119.66 27.8695Z" stroke="white" stroke-width="4" stroke-linecap="round" stroke-linejoin="round"/>
</svg>
