<svg width="122" height="112" viewBox="0 0 122 112" fill="none" xmlns="http://www.w3.org/2000/svg">
<path d="M119.577 29.6196V21.9297C119.577 18.5597 118.417 15.5196 116.537 13.3296C114.657 11.1296 112.067 9.76953 109.207 9.76953C103.477 9.76953 98.8271 15.2097 98.8271 21.9297V97.1897" stroke="white" stroke-width="4" stroke-linecap="round" stroke-linejoin="round"/>
<path d="M78.0873 89.4998V97.1799C78.0873 100.53 79.2473 103.59 81.1273 105.79C83.0073 107.99 85.5973 109.35 88.4673 109.35M88.4673 109.35C94.1873 109.35 98.8373 103.9 98.8373 97.1799V21.9199M88.4673 109.35H33.3973M16.4873 89.4998V42.5999" stroke="white" stroke-width="4" stroke-linecap="round" stroke-linejoin="round"/>
<path d="M78.0873 89.4998H6.42725C6.42725 100.47 13.9973 109.35 23.3373 109.35H78.4072M119.577 29.6199H98.8373M31.8273 9.75977H109.217" stroke="white" stroke-width="4" stroke-linecap="round" stroke-linejoin="round"/>
<path d="M16.4873 61.249V42.5991M98.8373 38.209V58.4192M37.1573 89.499H62.8473" stroke="white" stroke-width="4" stroke-linecap="round" stroke-linejoin="round"/>
<path d="M27.5074 26.9097L60.0373 59.4297M14.0474 40.3696C24.3574 50.6796 38.7874 54.3697 52.0474 51.4497C52.4074 49.8097 52.7773 47.9996 53.0973 46.0696C56.2273 27.2996 48.8574 12.0597 23.8974 7.88967C10.0874 5.57967 10.8573 0.629638 2.96733 2.35964C0.0473334 15.6196 3.73735 30.0396 14.0474 40.3596V40.3696Z" stroke="#FAB937" stroke-width="4" stroke-linecap="round" stroke-linejoin="round"/>
</svg>
