<svg width="119" height="103" viewBox="0 0 119 103" fill="none" xmlns="http://www.w3.org/2000/svg">
<path d="M71.62 86.66H46.8199M16.4301 86.66H10.71C5.89996 86.66 2 82.7701 2 77.9701V50.01C2 48.44 2.64004 47.02 3.67004 45.99C4.70004 44.96 6.12006 44.3201 7.69006 44.3201C9.36006 44.3201 10.71 42.97 10.71 41.3V12.0801C10.71 6.51008 15.2301 2 20.8101 2H65.7C69.65 2 73.24 4.29 74.88 7.88L89.55 39.8301C90.65 42.2301 93.05 43.77 95.7 43.77H107.48C112.29 43.77 116.19 47.6501 116.19 52.4601V77.9501C116.19 82.7501 112.3 86.64 107.48 86.64H102.01" stroke="white" stroke-width="4" stroke-linecap="round" stroke-linejoin="round"/>
<path d="M46.8701 18.9902V41.2402M27.8401 39.4003V20.8303C27.8401 19.8103 28.6602 18.9902 29.6802 18.9902H60.0101C60.7301 18.9902 61.3802 19.4103 61.6802 20.0603L70.1902 38.6302C70.7502 39.8502 69.8601 41.2302 68.5201 41.2302H29.6702C28.6502 41.2302 27.8301 40.4103 27.8301 39.3903L27.8401 39.4003Z" stroke="white" stroke-width="4" stroke-linecap="round" stroke-linejoin="round"/>
<path d="M31.6199 100.97C40.0256 100.97 46.8398 94.156 46.8398 85.7502C46.8398 77.3445 40.0256 70.5303 31.6199 70.5303C23.2141 70.5303 16.3999 77.3445 16.3999 85.7502C16.3999 94.156 23.2141 100.97 31.6199 100.97Z" stroke="#FAB937" stroke-width="4" stroke-linecap="round" stroke-linejoin="round"/>
<path d="M86.8099 100.97C95.2157 100.97 102.03 94.156 102.03 85.7502C102.03 77.3445 95.2157 70.5303 86.8099 70.5303C78.4042 70.5303 71.5898 77.3445 71.5898 85.7502C71.5898 94.156 78.4042 100.97 86.8099 100.97Z" stroke="#FAB937" stroke-width="4" stroke-linecap="round" stroke-linejoin="round"/>
<path d="M30.6699 55.2998H38.2799M67.7799 55.2998H75.3899" stroke="white" stroke-width="4" stroke-linecap="round" stroke-linejoin="round"/>
</svg>
