<svg width="71" height="55" viewBox="0 0 71 55" fill="none" xmlns="http://www.w3.org/2000/svg">
<path d="M35.0124 53.4174C45.6955 53.4174 54.3559 44.757 54.3559 34.0739C54.3559 23.3908 45.6955 14.7305 35.0124 14.7305C24.3293 14.7305 15.6689 23.3908 15.6689 34.0739C15.6689 44.757 24.3293 53.4174 35.0124 53.4174Z" stroke="#212121" stroke-width="1.95312" stroke-linecap="round" stroke-linejoin="round"/>
<path d="M35.0127 43.9443C40.4632 43.9443 44.8818 39.5257 44.8818 34.0752C44.8818 28.6246 40.4632 24.2061 35.0127 24.2061C29.5621 24.2061 25.1436 28.6246 25.1436 34.0752C25.1436 39.5257 29.5621 43.9443 35.0127 43.9443Z" stroke="#212121" stroke-width="1.95312" stroke-linecap="round" stroke-linejoin="round"/>
<path d="M55.9404 11.6409L58.801 7.24132M14.0839 11.6409L11.2176 7.24132M35.0122 8.83753V0.976562M0.976562 34.0739C17.5166 13.9924 35.0064 14.7304 35.0064 14.7304C35.0064 14.7304 52.4962 13.9924 69.0363 34.0739V34.2684C52.4962 54.3499 35.0064 53.6119 35.0064 53.6119C35.0064 53.6119 17.5166 54.3499 0.976562 34.2684V34.0739Z" stroke="#212121" stroke-width="1.95312" stroke-linecap="round" stroke-linejoin="round"/>
</svg>
