<svg version="1.1" xmlns="http://www.w3.org/2000/svg" viewBox="0 0 200 200">
  <g>
    <!-- Fondo verde -->
    <circle fill="#25D366" cx="100" cy="100" r="88.03"/>

    <!-- Ícono blanco -->
    <g fill="#FFFFFF">
      <path d="M148.9,98.05c-0.65-25.77-21.88-46.46-48.01-46.46c-25.82,0-46.86,20.22-47.99,45.58
        c-0.02,0.7-0.05,1.39-0.05,2.09c0,9.02,2.52,17.43,6.88,24.62l-8.66,25.57l26.6-8.46
        c6.88,3.78,14.8,5.94,23.21,5.94c26.54,0,48.03-21.34,48.03-47.67C148.92,98.86,148.92,98.46,148.9,98.05z 
        M100.89,139.34c-8.21,0-15.83-2.43-22.22-6.63l-15.52,4.95l5.04-14.89c-4.83-6.61-7.69-14.73-7.69-23.5
        c0-1.3,0.07-2.61,0.2-3.89c1.98-20.29,19.25-36.18,40.19-36.18c21.21,0,38.63,16.3,40.25,36.95
        c0.09,1.04,0.14,2.07,0.14,3.13C141.28,121.37,123.15,139.34,100.89,139.34z"/>
      
      <path d="M122.91,108.89c-1.19-0.58-6.97-3.42-8.05-3.8c-1.08-0.4-1.87-0.58-2.65,0.58
        c-0.79,1.17-3.06,3.8-3.73,4.56c-0.7,0.79-1.37,0.88-2.56,0.29c-1.17-0.58-4.97-1.8-9.47-5.8
        c-3.49-3.08-5.87-6.9-6.54-8.07c-0.67-1.17-0.07-1.8,0.52-2.38c0.54-0.54,1.17-1.37,1.78-2.05
        c0.27-0.43,0.47-0.83,0.74-1.39c0.41-0.79,0.2-1.46-0.09-2.05c-0.29-0.58-2.65-6.34-3.64-8.68
        c-0.97-2.34-1.95-1.93-2.65-1.93c-0.68,0-1.46-0.11-2.25-0.11c-0.79,0-2.07,0.29-3.15,1.46
        c-1.08,1.17-4.12,4-4.12,9.76c1.19,4.11,3.76,7.51,4.21,8.1c0.58,0.76,8.14,12.95,20.1,17.65
        c11.99,4.66,11.99,3.1,14.15,2.9c2.16-0.18,6.97-2.81,7.94-5.55c0.99-2.72,0.99-5.06,0.7-5.55
        C124.86,109.77,124.07,109.48,122.91,108.89z"/>
    </g>
  </g>
</svg>