<?xml version="1.0" standalone="no"?>
<!DOCTYPE svg PUBLIC "-//W3C//DTD SVG 20010904//EN"
 "http://www.w3.org/TR/2001/REC-SVG-20010904/DTD/svg10.dtd">
<svg version="1.0" xmlns="http://www.w3.org/2000/svg"
 width="512.000000pt" height="512.000000pt" viewBox="0 0 512.000000 512.000000"
 preserveAspectRatio="xMidYMid meet">

<g transform="translate(0.000000,512.000000) scale(0.100000,-0.100000)"
fill="#7C0600" stroke="none">
<path d="M790 5105 c-289 -60 -510 -263 -602 -555 l-23 -75 0 -1480 c0 -1664
-6 -1522 76 -1690 75 -152 202 -279 354 -354 132 -65 173 -73 418 -78 196 -5
217 -7 213 -21 -2 -10 -24 -174 -47 -367 -42 -346 -42 -350 -24 -388 10 -21
34 -50 53 -65 29 -22 46 -27 91 -26 51 0 152 41 1075 432 l1019 432 434 0
c358 0 447 3 511 16 153 31 276 98 387 209 83 82 135 158 176 256 62 153 60
80 57 1679 l-3 1455 -24 70 c-92 272 -276 455 -541 537 l-75 23 -1730 2
c-1410 1 -1742 -1 -1795 -12z m3538 -329 c29 -11 51 -22 50 -26 -6 -15 -1803
-1533 -1816 -1534 -13 -1 -1820 1522 -1821 1535 -1 4 25 14 57 23 31 10 62 19
67 21 6 2 775 3 1710 2 1646 -2 1702 -3 1753 -21z m-2848 -1077 c525 -446 972
-822 992 -836 52 -35 124 -35 176 0 20 14 467 390 992 836 525 446 958 811
962 811 3 0 12 -17 20 -37 11 -31 13 -307 13 -1483 l0 -1445 -23 -57 c-54
-133 -165 -237 -299 -278 -61 -19 -93 -20 -537 -20 l-473 0 -49 -25 c-27 -14
-411 -179 -854 -366 -443 -188 -825 -349 -849 -360 -24 -10 -47 -19 -50 -19
-4 0 10 142 32 315 l39 314 -23 48 c-43 86 -47 87 -404 93 -293 5 -313 7 -367
28 -132 53 -238 168 -278 301 -20 65 -20 89 -18 1496 3 1172 5 1436 16 1463 8
17 17 32 21 32 4 0 436 -365 961 -811z"/>
</g>
</svg>
