<svg width="149" height="149" viewBox="0 0 149 149" fill="none" xmlns="http://www.w3.org/2000/svg">
<rect width="149" height="149" rx="40" fill="white"/>
<path d="M74.3976 133.586C42.3108 133.586 16.2075 107.482 16.2075 75.3969C16.2075 43.3117 42.3108 17.2075 74.3976 17.2075C106.483 17.2075 132.586 43.3117 132.586 75.3969C132.586 107.482 106.483 133.586 74.3976 133.586ZM130.968 51.4981C127.876 44.1873 123.45 37.6217 117.811 31.9836C112.173 26.3454 105.608 21.9182 98.2954 18.8258C90.7263 15.6234 82.6853 14 74.3976 14C66.1098 14 58.0688 15.6234 50.4985 18.8258C43.1863 21.9182 36.6207 26.3454 30.9825 31.9836C25.3443 37.6217 20.9183 44.1873 17.8259 51.4981C14.6234 59.0684 13 67.1093 13 75.3969C13 83.6846 14.6234 91.7255 17.8259 99.2958C20.9183 106.607 25.3443 113.173 30.9825 118.812C36.6207 124.448 43.1863 128.876 50.4985 131.968C58.0688 135.171 66.1098 136.794 74.3976 136.794C82.6853 136.794 90.7263 135.171 98.2954 131.968C105.608 128.876 112.173 124.448 117.811 118.812C123.45 113.173 127.876 106.607 130.968 99.2958C134.171 91.7255 135.794 83.6846 135.794 75.3969C135.794 67.1093 134.171 59.0684 130.968 51.4981Z" fill="black"/>
<path d="M90.6547 117.054C90.6547 117.251 90.494 117.409 90.2975 117.409H58.7904C58.5939 117.409 58.4344 117.251 58.4344 117.054V104.686C58.4344 104.491 58.5939 104.332 58.7904 104.332H90.2975C90.494 104.332 90.6547 104.491 90.6547 104.686V117.054ZM92.8966 108.614C98.0029 105.562 98.6499 101.187 98.6499 101.187C95.7381 101.202 93.5052 101.999 91.798 103.132C91.5071 102.859 91.1179 102.689 90.6866 102.689H58.4012C57.9699 102.689 57.5807 102.859 57.2911 103.132C55.5839 101.999 53.3497 101.202 50.438 101.187C50.438 101.187 51.0849 105.562 56.1912 108.614C52.5267 108.156 45.8496 107.749 41.2473 109.961C41.2473 109.961 47.1588 115.888 56.7807 111.67V117.442C56.7807 118.331 57.5055 119.053 58.4012 119.053H70.8456L65.7813 125.073L67.403 125.259L67.879 126.811L74.4055 119.053H74.6823L81.2088 126.811L81.6848 125.259L83.3065 125.073L78.2435 119.053H90.6866C91.5823 119.053 92.3071 118.331 92.3071 117.442V111.67C101.93 115.888 107.841 109.961 107.841 109.961C103.238 107.749 96.5611 108.156 92.8966 108.614ZM46.702 32.2577C41.0265 34.8518 42.1085 39.8194 42.1085 39.8194C46.5055 36.6395 46.702 32.2577 46.702 32.2577ZM51.5863 37.3965C51.5863 37.3965 46.9597 36.263 44.2624 40.1047C44.2624 40.1047 49.1786 40.8071 51.5863 37.3965ZM53.7401 28.9751C53.7401 28.9751 48.9145 29.585 48.2854 34.2546C48.2854 34.2546 52.7411 32.3223 53.7401 28.9751ZM56.2257 33.6359C52.2281 32.5886 50.008 35.2537 50.008 35.2537C54.5835 36.0778 56.2257 33.6359 56.2257 33.6359ZM60.5116 29.8892C56.486 28.8737 54.1727 31.6161 54.1727 31.6161C58.6002 32.4859 60.5116 29.8892 60.5116 29.8892ZM39.9535 37.5258C33.6975 41.2673 36.3642 46.7434 36.3642 46.7434C40.4039 42.1384 39.9535 37.5258 39.9535 37.5258ZM46.508 42.1992C46.508 42.1992 41.5191 41.6109 38.5193 46.6698C38.5193 46.6698 43.9523 46.8917 46.508 42.1992ZM33.4538 50.3645C34.2997 46.4289 32.6652 43.2643 32.6652 43.2643C26.0201 50.7563 31.7593 56.4111 31.7593 56.4111C32.4304 53.4898 32.6065 54.3013 33.4538 50.3645ZM29.0377 67.3631C29.0441 65.0936 29.7114 64.4875 29.3133 60.1247C28.9165 55.7619 26.1898 52.9979 26.1898 52.9979C21.7163 62.9128 29.0377 67.3631 29.0377 67.3631ZM41.6096 48.6706C41.6096 48.6706 36.5339 48.1964 33.7791 55.5185C33.7791 55.5185 39.8705 54.7108 41.6096 48.6706ZM37.9426 56.8028C37.9426 56.8028 32.0681 57.4469 30.9082 65.6515C30.9082 65.6515 37.2893 63.2742 37.9426 56.8028ZM28.8948 79.3511C28.3614 76.8457 28.6932 74.9033 27.3126 70.7535C25.932 66.6049 22.5074 64.6524 22.5074 64.6524C19.676 75.1619 28.8948 79.3511 28.8948 79.3511ZM30.4029 76.3538C30.4029 76.3538 36.2723 72.8747 35.7887 65.7935C35.7887 65.7935 29.5251 67.8678 30.4029 76.3538ZM31.6291 90.416C30.9771 89.1037 31.046 87.8333 28.2912 83.2397C25.5352 78.6449 20.989 77.2121 20.989 77.2121C20.7925 88.1541 31.6291 90.416 31.6291 90.416ZM35.4876 75.2203C28.9815 80.4694 32.6652 87.6507 32.6652 87.6507C37.9464 80.567 35.4876 75.2203 35.4876 75.2203ZM37.6593 84.0613C31.9201 92.9873 39.267 99.4751 39.267 99.4751C39.0973 96.8518 39.5337 94.4073 39.831 90.9231C40.1283 87.439 37.6593 84.0613 37.6593 84.0613ZM36.946 99.7502C28.831 89.446 23.0075 90.1979 23.0075 90.1979C26.1706 101.662 36.946 99.7502 36.946 99.7502Z" fill="black"/>
<path d="M107.001 39.8657C107.001 39.8657 108.067 34.8769 102.476 32.2717C102.476 32.2717 102.671 36.6723 107.001 39.8657ZM104.879 40.1522C102.224 36.2941 97.665 37.4324 97.665 37.4324C100.037 40.8576 104.879 40.1522 104.879 40.1522ZM100.917 34.2772C100.297 29.5876 95.5433 28.9751 95.5433 28.9751C96.5275 32.3366 100.917 34.2772 100.917 34.2772ZM93.0949 33.6558C93.0949 33.6558 94.7138 36.1082 99.2197 35.2805C99.2197 35.2805 97.034 32.604 93.0949 33.6558ZM95.1173 31.6274C95.1173 31.6274 92.8385 28.8732 88.873 29.8932C88.873 29.8932 90.7559 32.5009 95.1173 31.6274ZM109.124 37.5623C109.124 37.5623 108.68 42.1946 112.66 46.8193C112.66 46.8193 115.287 41.3199 109.124 37.5623ZM102.667 42.2557C105.185 46.9683 110.538 46.7454 110.538 46.7454C107.583 41.6649 102.667 42.2557 102.667 42.2557ZM117.196 56.5283C117.196 56.5283 122.849 50.8493 116.303 43.3253C116.303 43.3253 114.693 46.5035 115.528 50.4559C116.361 54.4095 116.535 53.5946 117.196 56.5283ZM122.682 53.1005C122.682 53.1005 119.997 55.8764 119.605 60.2578C119.214 64.638 119.87 65.2479 119.877 67.5272C119.877 67.5272 127.09 63.0578 122.682 53.1005ZM107.493 48.7547C109.206 54.8208 115.206 55.6319 115.206 55.6319C112.494 48.2785 107.493 48.7547 107.493 48.7547ZM111.105 56.9218C111.75 63.4207 118.035 65.8082 118.035 65.8082C116.892 57.5686 111.105 56.9218 111.105 56.9218ZM120.017 79.5663C120.017 79.5663 129.1 75.3593 126.309 64.8048C126.309 64.8048 122.936 66.7657 121.576 70.932C120.216 75.0996 120.543 77.0503 120.017 79.5663ZM118.532 76.5562C119.398 68.034 113.226 65.9508 113.226 65.9508C112.75 73.0623 118.532 76.5562 118.532 76.5562ZM127.805 77.417C127.805 77.417 123.327 78.8571 120.612 83.4716C117.898 88.0848 117.966 89.3607 117.324 90.6785C117.324 90.6785 127.999 88.407 127.805 77.417ZM113.524 75.4179C113.524 75.4179 111.101 80.7875 116.303 87.9014C116.303 87.9014 119.933 80.6894 113.524 75.4179ZM111.384 84.2967C111.384 84.2967 108.952 87.6888 109.245 91.1879C109.538 94.6869 109.967 97.1419 109.8 99.7764C109.8 99.7764 117.037 93.2608 111.384 84.2967ZM112.086 100.053C112.086 100.053 122.701 101.973 125.817 90.4595C125.817 90.4595 120.08 89.7045 112.086 100.053ZM103.323 106.32C103.323 106.32 112.453 111.599 119.875 102.499C119.875 102.499 114.076 100.157 103.323 106.32ZM107.073 93.9013C104.89 96.0621 102.855 98.4457 102.366 100.856C101.762 103.843 101.203 105.651 101.203 105.651C109.808 101.453 107.073 93.9013 107.073 93.9013Z" fill="black"/>
<path d="M28.9727 102.84C36.4997 111.999 45.7591 106.686 45.7591 106.686C34.8541 100.484 28.9727 102.84 28.9727 102.84ZM41.9567 94.1877C41.9567 94.1877 39.1829 101.788 47.9095 106.013C47.9095 106.013 47.3435 104.194 46.7304 101.187C46.2358 98.7613 44.1708 96.3623 41.9567 94.1877ZM74.3746 41.1636L77.3778 49.1178H71.3332L74.3746 41.1636ZM67.2134 60.1501L69.1382 55.1536H79.5346L81.4976 60.1501H89.5065L78.033 31.9702H70.8322L59.3587 60.1501H67.2134ZM56.3887 70.9082H61.2784C63.7819 70.9082 65.3217 72.0359 65.3217 74.249V74.3298C65.3217 76.3827 63.8584 77.6719 61.3179 77.6719H56.3887V70.9082ZM56.3887 82.917H59.1064L65.091 92.3257H73.7156L67.2848 82.5031C70.6347 81.0127 72.8297 78.155 72.8297 73.8466V73.7672C72.8297 70.9889 72.0215 68.8155 70.4422 67.2047C68.6334 65.2722 65.7832 64.1445 61.6634 64.1445H48.919V92.3257H56.3887V82.917ZM76.1643 78.2344V78.3113C76.1643 86.0925 82.0164 92.3257 89.9144 92.3257C95.9666 92.3257 100.86 88.6209 102.818 83.3911L95.5791 82.1186C94.4969 84.1588 92.5186 85.5504 89.9883 85.5504C86.112 85.5504 83.4428 82.1455 83.4428 78.2344V78.1563C83.4428 74.2477 86.0393 70.9197 89.9144 70.9197C92.4255 70.9197 94.4242 72.3217 95.5345 74.3592L102.849 73.0726C100.926 67.8301 96.0635 64.1445 89.9883 64.1445C82.089 64.1445 76.1643 70.4533 76.1643 78.2344ZM60.8986 114.831H62.3364V108.406H60.8986V114.831ZM67.541 108.406H63.0146V109.965H64.562V114.831H65.9922V109.965H67.541V108.406ZM69.063 112.316L69.6455 110.501L70.2204 112.316H69.063ZM68.9661 108.406L66.7698 114.831H68.2739L68.6423 113.692H70.6334L71.0094 114.831H72.5429L70.3453 108.406H68.9661ZM75.6748 112.298H78.1515V110.893H75.6748V109.92H78.4103V108.406H74.2599V114.831H78.4472V113.316H75.6748V112.298ZM81.3293 110.855C80.6142 110.66 80.4383 110.536 80.4383 110.251V110.233C80.4383 110.011 80.6078 109.835 80.9546 109.835C81.4109 109.835 81.9271 110.047 82.3988 110.447L83.1139 109.231C82.5543 108.689 81.8685 108.406 80.9902 108.406C79.7525 108.406 78.9928 109.24 78.9928 110.393V110.411C78.9928 111.689 79.8405 112.062 80.9393 112.363C81.6391 112.559 81.8086 112.701 81.8086 112.959V112.976C81.8086 113.242 81.6021 113.402 81.2197 113.402C80.6219 113.402 80.0546 113.145 79.546 112.656L78.7493 113.802C79.3829 114.485 80.2535 114.831 81.1674 114.831C82.4205 114.831 83.2541 114.076 83.2541 112.808V112.79C83.2541 111.627 82.5173 111.166 81.3293 110.855ZM83.4402 109.965H84.9877V114.831H86.4192V109.965H87.9666V108.406H83.4402V109.965Z" fill="black"/>
</svg>
