<svg width="123" height="123" viewBox="0 0 123 123" fill="none" xmlns="http://www.w3.org/2000/svg">
<path d="M61.3976 119.586C29.3108 119.586 3.20754 93.4822 3.20754 61.3969C3.20754 29.3117 29.3108 3.20751 61.3976 3.20751C93.4831 3.20751 119.586 29.3117 119.586 61.3969C119.586 93.4822 93.4831 119.586 61.3976 119.586ZM117.968 37.4981C114.876 30.1873 110.45 23.6217 104.811 17.9836C99.1732 12.3454 92.6076 7.91819 85.2954 4.82582C77.7263 1.62337 69.6853 0 61.3976 0C53.1098 0 45.0688 1.62337 37.4985 4.82582C30.1863 7.91819 23.6207 12.3454 17.9825 17.9836C12.3443 23.6217 7.91827 30.1873 4.82587 37.4981C1.62338 45.0684 0 53.1093 0 61.3969C0 69.6846 1.62338 77.7255 4.82587 85.2958C7.91827 92.6066 12.3443 99.1735 17.9825 104.812C23.6207 110.448 30.1863 114.876 37.4985 117.968C45.0688 121.171 53.1098 122.794 61.3976 122.794C69.6853 122.794 77.7263 121.171 85.2954 117.968C92.6076 114.876 99.1732 110.448 104.811 104.812C110.45 99.1735 114.876 92.6066 117.968 85.2958C121.171 77.7255 122.794 69.6846 122.794 61.3969C122.794 53.1093 121.171 45.0684 117.968 37.4981Z" fill="black"/>
<path d="M77.6547 103.054C77.6547 103.251 77.494 103.409 77.2975 103.409H45.7904C45.5939 103.409 45.4344 103.251 45.4344 103.054V90.6861C45.4344 90.4909 45.5939 90.3324 45.7904 90.3324H77.2975C77.494 90.3324 77.6547 90.4909 77.6547 90.6861V103.054ZM79.8966 94.6141C85.0029 91.5622 85.6499 87.1867 85.6499 87.1867C82.7381 87.202 80.5052 87.9995 78.798 89.1317C78.5071 88.8591 78.1179 88.6892 77.6866 88.6892H45.4012C44.9699 88.6892 44.5807 88.8591 44.2911 89.1317C42.5839 87.9995 40.3497 87.202 37.438 87.1867C37.438 87.1867 38.0849 91.5622 43.1912 94.6141C39.5267 94.1564 32.8496 93.7494 28.2473 95.9606C28.2473 95.9606 34.1588 101.888 43.7807 97.6697V103.442C43.7807 104.331 44.5055 105.053 45.4012 105.053H57.8456L52.7813 111.073L54.403 111.259L54.879 112.811L61.4055 105.053H61.6823L68.2088 112.811L68.6848 111.259L70.3065 111.073L65.2435 105.053H77.6866C78.5823 105.053 79.3071 104.331 79.3071 103.442V97.6697C88.9303 101.888 94.8405 95.9606 94.8405 95.9606C90.2382 93.7494 83.5611 94.1564 79.8966 94.6141ZM33.702 18.2577C28.0265 20.8518 29.1085 25.8194 29.1085 25.8194C33.5055 22.6395 33.702 18.2577 33.702 18.2577ZM38.5863 23.3965C38.5863 23.3965 33.9597 22.263 31.2624 26.1047C31.2624 26.1047 36.1786 26.8071 38.5863 23.3965ZM40.7401 14.9751C40.7401 14.9751 35.9145 15.585 35.2854 20.2546C35.2854 20.2546 39.7411 18.3223 40.7401 14.9751ZM43.2257 19.6359C39.2281 18.5886 37.008 21.2537 37.008 21.2537C41.5835 22.0778 43.2257 19.6359 43.2257 19.6359ZM47.5116 15.8892C43.486 14.8737 41.1727 17.6161 41.1727 17.6161C45.6002 18.4859 47.5116 15.8892 47.5116 15.8892ZM26.9535 23.5258C20.6975 27.2673 23.3642 32.7434 23.3642 32.7434C27.4039 28.1384 26.9535 23.5258 26.9535 23.5258ZM33.508 28.1992C33.508 28.1992 28.5191 27.6109 25.5193 32.6698C25.5193 32.6698 30.9523 32.8917 33.508 28.1992ZM20.4538 36.3645C21.2997 32.4289 19.6652 29.2643 19.6652 29.2643C13.0201 36.7563 18.7593 42.4111 18.7593 42.4111C19.4304 39.4898 19.6065 40.3013 20.4538 36.3645ZM16.0377 53.3631C16.0441 51.0936 16.7114 50.4875 16.3133 46.1247C15.9165 41.7619 13.1898 38.9979 13.1898 38.9979C8.71626 48.9128 16.0377 53.3631 16.0377 53.3631ZM28.6096 34.6706C28.6096 34.6706 23.5339 34.1964 20.7791 41.5185C20.7791 41.5185 26.8705 40.7108 28.6096 34.6706ZM24.9426 42.8028C24.9426 42.8028 19.0681 43.4469 17.9082 51.6515C17.9082 51.6515 24.2893 49.2742 24.9426 42.8028ZM15.8948 65.3511C15.3614 62.8457 15.6932 60.9033 14.3126 56.7535C12.932 52.6049 9.50735 50.6524 9.50735 50.6524C6.67601 61.1619 15.8948 65.3511 15.8948 65.3511ZM17.4029 62.3538C17.4029 62.3538 23.2723 58.8747 22.7887 51.7935C22.7887 51.7935 16.5251 53.8678 17.4029 62.3538ZM18.6291 76.416C17.9771 75.1037 18.046 73.8333 15.2912 69.2397C12.5352 64.6449 7.98897 63.2121 7.98897 63.2121C7.79247 74.1541 18.6291 76.416 18.6291 76.416ZM22.4876 61.2203C15.9815 66.4694 19.6652 73.6507 19.6652 73.6507C24.9464 66.567 22.4876 61.2203 22.4876 61.2203ZM24.6593 70.0613C18.9201 78.9873 26.267 85.4751 26.267 85.4751C26.0973 82.8518 26.5337 80.4073 26.831 76.9231C27.1283 73.439 24.6593 70.0613 24.6593 70.0613ZM23.946 85.7502C15.831 75.446 10.0075 76.1979 10.0075 76.1979C13.1706 87.6622 23.946 85.7502 23.946 85.7502Z" fill="black"/>
<path d="M94.0011 25.8657C94.0011 25.8657 95.067 20.8769 89.4763 18.2717C89.4763 18.2717 89.6711 22.6723 94.0011 25.8657ZM91.8795 26.1522C89.2237 22.2941 84.665 23.4324 84.665 23.4324C87.0367 26.8576 91.8795 26.1522 91.8795 26.1522ZM87.9165 20.2772C87.2969 15.5876 82.5433 14.9751 82.5433 14.9751C83.5275 18.3366 87.9165 20.2772 87.9165 20.2772ZM80.0949 19.6558C80.0949 19.6558 81.7138 22.1082 86.2197 21.2805C86.2197 21.2805 84.034 18.604 80.0949 19.6558ZM82.1173 17.6274C82.1173 17.6274 79.8385 14.8732 75.873 15.8932C75.873 15.8932 77.7559 18.5009 82.1173 17.6274ZM96.124 23.5623C96.124 23.5623 95.6803 28.1946 99.6596 32.8193C99.6596 32.8193 102.287 27.3199 96.124 23.5623ZM89.6674 28.2557C92.1849 32.9683 97.538 32.7454 97.538 32.7454C94.5831 27.6649 89.6674 28.2557 89.6674 28.2557ZM104.196 42.5283C104.196 42.5283 109.849 36.8493 103.303 29.3253C103.303 29.3253 101.693 32.5035 102.528 36.4559C103.361 40.4095 103.535 39.5946 104.196 42.5283ZM109.682 39.1005C109.682 39.1005 106.997 41.8764 106.605 46.2578C106.214 50.638 106.87 51.2479 106.877 53.5272C106.877 53.5272 114.09 49.0578 109.682 39.1005ZM94.4926 34.7547C96.2057 40.8208 102.206 41.6319 102.206 41.6319C99.4937 34.2785 94.4926 34.7547 94.4926 34.7547ZM98.1048 42.9218C98.7496 49.4207 105.035 51.8082 105.035 51.8082C103.892 43.5686 98.1048 42.9218 98.1048 42.9218ZM107.017 65.5663C107.017 65.5663 116.1 61.3593 113.309 50.8048C113.309 50.8048 109.936 52.7657 108.576 56.932C107.216 61.0996 107.543 63.0503 107.017 65.5663ZM105.532 62.5562C106.398 54.034 100.226 51.9508 100.226 51.9508C99.7501 59.0623 105.532 62.5562 105.532 62.5562ZM114.805 63.417C114.805 63.417 110.327 64.8571 107.612 69.4716C104.898 74.0848 104.966 75.3607 104.324 76.6785C104.324 76.6785 114.999 74.407 114.805 63.417ZM100.524 61.4179C100.524 61.4179 98.1011 66.7875 103.303 73.9014C103.303 73.9014 106.933 66.6894 100.524 61.4179ZM98.3839 70.2967C98.3839 70.2967 95.9518 73.6888 96.2447 77.1879C96.5375 80.6869 96.9674 83.1419 96.8002 85.7764C96.8002 85.7764 104.037 79.2608 98.3839 70.2967ZM99.0865 86.0527C99.0865 86.0527 109.701 87.9728 112.817 76.4595C112.817 76.4595 107.08 75.7045 99.0865 86.0527ZM90.3235 92.3199C90.3235 92.3199 99.4535 97.5991 106.875 88.4987C106.875 88.4987 101.076 86.1571 90.3235 92.3199ZM94.0728 79.9013C91.8895 82.0621 89.8546 84.4457 89.3657 86.8561C88.7624 89.8433 88.2031 91.6514 88.2031 91.6514C96.8077 87.4533 94.0728 79.9013 94.0728 79.9013Z" fill="black"/>
<path d="M15.9727 88.8403C23.4997 97.999 32.7591 92.686 32.7591 92.686C21.8541 86.4836 15.9727 88.8403 15.9727 88.8403ZM28.9567 80.1877C28.9567 80.1877 26.1829 87.7882 34.9095 92.0132C34.9095 92.0132 34.3435 90.1935 33.7304 87.1871C33.2358 84.7613 31.1708 82.3623 28.9567 80.1877ZM61.3746 27.1636L64.3778 35.1178H58.3332L61.3746 27.1636ZM54.2134 46.1501L56.1382 41.1536H66.5346L68.4976 46.1501H76.5065L65.033 17.9702H57.8322L46.3587 46.1501H54.2134ZM43.3887 56.9082H48.2784C50.7819 56.9082 52.3217 58.0359 52.3217 60.249V60.3298C52.3217 62.3827 50.8584 63.6719 48.3179 63.6719H43.3887V56.9082ZM43.3887 68.917H46.1064L52.091 78.3257H60.7156L54.2848 68.5031C57.6347 67.0127 59.8297 64.155 59.8297 59.8466V59.7672C59.8297 56.9889 59.0215 54.8155 57.4422 53.2047C55.6334 51.2722 52.7832 50.1445 48.6634 50.1445H35.919V78.3257H43.3887V68.917ZM63.1643 64.2344V64.3113C63.1643 72.0925 69.0164 78.3257 76.9144 78.3257C82.9666 78.3257 87.8601 74.6209 89.8181 69.3911L82.5791 68.1186C81.4969 70.1588 79.5186 71.5504 76.9883 71.5504C73.112 71.5504 70.4428 68.1455 70.4428 64.2344V64.1563C70.4428 60.2477 73.0393 56.9197 76.9144 56.9197C79.4255 56.9197 81.4242 58.3217 82.5345 60.3592L89.8487 59.0726C87.9264 53.8301 83.0635 50.1445 76.9883 50.1445C69.089 50.1445 63.1643 56.4533 63.1643 64.2344ZM47.8986 100.831H49.3364V94.4058H47.8986V100.831ZM54.541 94.4058H50.0146V95.9653H51.562V100.831H52.9922V95.9653H54.541V94.4058ZM56.063 98.3156L56.6455 96.501L57.2204 98.3156H56.063ZM55.9661 94.4058L53.7698 100.831H55.2739L55.6423 99.6919H57.6334L58.0094 100.831H59.5429L57.3453 94.4058H55.9661ZM62.6748 98.2976H65.1515V96.8931H62.6748V95.9205H65.4103V94.4058H61.2599V100.831H65.4472V99.3164H62.6748V98.2976ZM68.3293 96.8547C67.6142 96.6599 67.4383 96.5356 67.4383 96.2511V96.2332C67.4383 96.0115 67.6078 95.8346 67.9546 95.8346C68.4109 95.8346 68.9271 96.0473 69.3988 96.4472L70.1139 95.231C69.5543 94.689 68.8685 94.4058 67.9902 94.4058C66.7525 94.4058 65.9928 95.24 65.9928 96.3933V96.4113C65.9928 97.6889 66.8405 98.0618 67.9393 98.363C68.6391 98.5591 68.8086 98.7013 68.8086 98.9589V98.9755C68.8086 99.2421 68.6021 99.4023 68.2197 99.4023C67.6219 99.4023 67.0546 99.1447 66.546 98.6564L65.7493 99.8021C66.3829 100.485 67.2535 100.831 68.1674 100.831C69.4205 100.831 70.2541 100.076 70.2541 98.8077V98.7897C70.2541 97.6274 69.5173 97.1661 68.3293 96.8547ZM70.4402 95.9653H71.9877V100.831H73.4192V95.9653H74.9666V94.4058H70.4402V95.9653Z" fill="black"/>
</svg>
