<svg width="165" height="165" viewBox="0 0 165 165" fill="none" xmlns="http://www.w3.org/2000/svg">
<path d="M0 40C0 17.9086 17.9086 0 40 0H125C147.091 0 165 17.9086 165 40V125C165 147.091 147.091 165 125 165H40C17.9086 165 0 147.091 0 125V40Z" fill="white"/>
<path d="M82.3976 140.586C50.3108 140.586 24.2075 114.482 24.2075 82.3969C24.2075 50.3117 50.3108 24.2075 82.3976 24.2075C114.483 24.2075 140.586 50.3117 140.586 82.3969C140.586 114.482 114.483 140.586 82.3976 140.586ZM138.968 58.4981C135.876 51.1873 131.45 44.6217 125.811 38.9836C120.173 33.3454 113.608 28.9182 106.295 25.8258C98.7263 22.6234 90.6853 21 82.3976 21C74.1098 21 66.0688 22.6234 58.4985 25.8258C51.1863 28.9182 44.6207 33.3454 38.9825 38.9836C33.3443 44.6217 28.9183 51.1873 25.8259 58.4981C22.6234 66.0684 21 74.1093 21 82.3969C21 90.6846 22.6234 98.7255 25.8259 106.296C28.9183 113.607 33.3443 120.173 38.9825 125.812C44.6207 131.448 51.1863 135.876 58.4985 138.968C66.0688 142.171 74.1098 143.794 82.3976 143.794C90.6853 143.794 98.7263 142.171 106.295 138.968C113.608 135.876 120.173 131.448 125.811 125.812C131.45 120.173 135.876 113.607 138.968 106.296C142.171 98.7255 143.794 90.6846 143.794 82.3969C143.794 74.1093 142.171 66.0684 138.968 58.4981Z" fill="black"/>
<path d="M98.6547 124.054C98.6547 124.251 98.494 124.409 98.2975 124.409H66.7904C66.5939 124.409 66.4344 124.251 66.4344 124.054V111.686C66.4344 111.491 66.5939 111.332 66.7904 111.332H98.2975C98.494 111.332 98.6547 111.491 98.6547 111.686V124.054ZM100.897 115.614C106.003 112.562 106.65 108.187 106.65 108.187C103.738 108.202 101.505 108.999 99.798 110.132C99.5071 109.859 99.1179 109.689 98.6866 109.689H66.4012C65.9699 109.689 65.5807 109.859 65.2911 110.132C63.5839 108.999 61.3497 108.202 58.438 108.187C58.438 108.187 59.0849 112.562 64.1912 115.614C60.5267 115.156 53.8496 114.749 49.2473 116.961C49.2473 116.961 55.1588 122.888 64.7807 118.67V124.442C64.7807 125.331 65.5055 126.053 66.4012 126.053H78.8456L73.7813 132.073L75.403 132.259L75.879 133.811L82.4055 126.053H82.6824L89.2088 133.811L89.6848 132.259L91.3065 132.073L86.2435 126.053H98.6866C99.5823 126.053 100.307 125.331 100.307 124.442V118.67C109.93 122.888 115.841 116.961 115.841 116.961C111.238 114.749 104.561 115.156 100.897 115.614ZM54.702 39.2577C49.0265 41.8518 50.1085 46.8194 50.1085 46.8194C54.5055 43.6395 54.702 39.2577 54.702 39.2577ZM59.5863 44.3965C59.5863 44.3965 54.9597 43.263 52.2624 47.1047C52.2624 47.1047 57.1786 47.8071 59.5863 44.3965ZM61.7401 35.9751C61.7401 35.9751 56.9145 36.585 56.2854 41.2546C56.2854 41.2546 60.7411 39.3223 61.7401 35.9751ZM64.2257 40.6359C60.2281 39.5886 58.008 42.2537 58.008 42.2537C62.5835 43.0778 64.2257 40.6359 64.2257 40.6359ZM68.5116 36.8892C64.486 35.8737 62.1727 38.6161 62.1727 38.6161C66.6002 39.4859 68.5116 36.8892 68.5116 36.8892ZM47.9535 44.5258C41.6975 48.2673 44.3642 53.7434 44.3642 53.7434C48.4039 49.1384 47.9535 44.5258 47.9535 44.5258ZM54.508 49.1992C54.508 49.1992 49.5191 48.6109 46.5193 53.6698C46.5193 53.6698 51.9523 53.8917 54.508 49.1992ZM41.4538 57.3645C42.2997 53.4289 40.6652 50.2643 40.6652 50.2643C34.0201 57.7562 39.7593 63.4111 39.7593 63.4111C40.4304 60.4898 40.6065 61.3013 41.4538 57.3645ZM37.0377 74.3631C37.0441 72.0936 37.7114 71.4875 37.3133 67.1247C36.9165 62.7619 34.1898 59.9979 34.1898 59.9979C29.7163 69.9128 37.0377 74.3631 37.0377 74.3631ZM49.6096 55.6706C49.6096 55.6706 44.5339 55.1964 41.7791 62.5185C41.7791 62.5185 47.8705 61.7108 49.6096 55.6706ZM45.9426 63.8028C45.9426 63.8028 40.0681 64.4469 38.9082 72.6515C38.9082 72.6515 45.2893 70.2742 45.9426 63.8028ZM36.8948 86.3511C36.3614 83.8457 36.6932 81.9033 35.3126 77.7535C33.932 73.6049 30.5074 71.6524 30.5074 71.6524C27.676 82.1619 36.8948 86.3511 36.8948 86.3511ZM38.403 83.3538C38.403 83.3538 44.2723 79.8747 43.7887 72.7935C43.7887 72.7935 37.5251 74.8678 38.403 83.3538ZM39.6291 97.416C38.9771 96.1037 39.046 94.8333 36.2912 90.2397C33.5352 85.6449 28.989 84.2121 28.989 84.2121C28.7925 95.1541 39.6291 97.416 39.6291 97.416ZM43.4876 82.2203C36.9815 87.4693 40.6652 94.6507 40.6652 94.6507C45.9464 87.567 43.4876 82.2203 43.4876 82.2203ZM45.6593 91.0613C39.9201 99.9873 47.267 106.475 47.267 106.475C47.0973 103.852 47.5337 101.407 47.831 97.9231C48.1283 94.439 45.6593 91.0613 45.6593 91.0613ZM44.946 106.75C36.831 96.446 31.0075 97.1979 31.0075 97.1979C34.1706 108.662 44.946 106.75 44.946 106.75Z" fill="black"/>
<path d="M115.001 46.8657C115.001 46.8657 116.067 41.8769 110.476 39.2717C110.476 39.2717 110.671 43.6723 115.001 46.8657ZM112.879 47.1522C110.224 43.2941 105.665 44.4324 105.665 44.4324C108.037 47.8576 112.879 47.1522 112.879 47.1522ZM108.917 41.2772C108.297 36.5876 103.543 35.9751 103.543 35.9751C104.527 39.3366 108.917 41.2772 108.917 41.2772ZM101.095 40.6558C101.095 40.6558 102.714 43.1082 107.22 42.2805C107.22 42.2805 105.034 39.604 101.095 40.6558ZM103.117 38.6274C103.117 38.6274 100.839 35.8732 96.873 36.8932C96.873 36.8932 98.7559 39.5009 103.117 38.6274ZM117.124 44.5623C117.124 44.5623 116.68 49.1946 120.66 53.8193C120.66 53.8193 123.287 48.3199 117.124 44.5623ZM110.667 49.2557C113.185 53.9683 118.538 53.7454 118.538 53.7454C115.583 48.6649 110.667 49.2557 110.667 49.2557ZM125.196 63.5283C125.196 63.5283 130.849 57.8493 124.303 50.3253C124.303 50.3253 122.693 53.5035 123.528 57.4559C124.361 61.4095 124.535 60.5946 125.196 63.5283ZM130.682 60.1005C130.682 60.1005 127.997 62.8764 127.605 67.2578C127.214 71.638 127.87 72.2479 127.877 74.5272C127.877 74.5272 135.09 70.0579 130.682 60.1005ZM115.493 55.7547C117.206 61.8208 123.206 62.6319 123.206 62.6319C120.494 55.2785 115.493 55.7547 115.493 55.7547ZM119.105 63.9218C119.75 70.4207 126.035 72.8082 126.035 72.8082C124.892 64.5686 119.105 63.9218 119.105 63.9218ZM128.017 86.5663C128.017 86.5663 137.1 82.3593 134.309 71.8048C134.309 71.8048 130.936 73.7657 129.576 77.932C128.216 82.0996 128.543 84.0503 128.017 86.5663ZM126.532 83.5562C127.398 75.034 121.226 72.9508 121.226 72.9508C120.75 80.0623 126.532 83.5562 126.532 83.5562ZM135.805 84.417C135.805 84.417 131.327 85.8571 128.612 90.4716C125.898 95.0848 125.966 96.3607 125.324 97.6785C125.324 97.6785 135.999 95.407 135.805 84.417ZM121.524 82.4179C121.524 82.4179 119.101 87.7875 124.303 94.9015C124.303 94.9015 127.933 87.6894 121.524 82.4179ZM119.384 91.2967C119.384 91.2967 116.952 94.6888 117.245 98.1879C117.538 101.687 117.967 104.142 117.8 106.776C117.8 106.776 125.037 100.261 119.384 91.2967ZM120.086 107.053C120.086 107.053 130.701 108.973 133.817 97.4595C133.817 97.4595 128.08 96.7045 120.086 107.053ZM111.323 113.32C111.323 113.32 120.453 118.599 127.875 109.499C127.875 109.499 122.076 107.157 111.323 113.32ZM115.073 100.901C112.89 103.062 110.855 105.446 110.366 107.856C109.762 110.843 109.203 112.651 109.203 112.651C117.808 108.453 115.073 100.901 115.073 100.901Z" fill="black"/>
<path d="M36.9727 109.84C44.4997 118.999 53.7591 113.686 53.7591 113.686C42.8541 107.484 36.9727 109.84 36.9727 109.84ZM49.9567 101.188C49.9567 101.188 47.1829 108.788 55.9095 113.013C55.9095 113.013 55.3435 111.194 54.7304 108.187C54.2358 105.761 52.1708 103.362 49.9567 101.188ZM82.3746 48.1636L85.3778 56.1178H79.3332L82.3746 48.1636ZM75.2134 67.1501L77.1382 62.1536H87.5346L89.4976 67.1501H97.5065L86.033 38.9702H78.8322L67.3587 67.1501H75.2134ZM64.3887 77.9082H69.2784C71.7819 77.9082 73.3217 79.0359 73.3217 81.249V81.3298C73.3217 83.3827 71.8584 84.6719 69.3179 84.6719H64.3887V77.9082ZM64.3887 89.917H67.1064L73.091 99.3257H81.7156L75.2848 89.5031C78.6347 88.0127 80.8297 85.155 80.8297 80.8466V80.7672C80.8297 77.9889 80.0215 75.8155 78.4422 74.2047C76.6334 72.2722 73.7832 71.1445 69.6634 71.1445H56.919V99.3257H64.3887V89.917ZM84.1643 85.2344V85.3113C84.1643 93.0925 90.0164 99.3257 97.9144 99.3257C103.967 99.3257 108.86 95.6209 110.818 90.3911L103.579 89.1186C102.497 91.1587 100.519 92.5504 97.9883 92.5504C94.112 92.5504 91.4428 89.1455 91.4428 85.2344V85.1563C91.4428 81.2477 94.0393 77.9197 97.9144 77.9197C100.426 77.9197 102.424 79.3217 103.534 81.3592L110.849 80.0726C108.926 74.83 104.063 71.1445 97.9883 71.1445C90.089 71.1445 84.1643 77.4532 84.1643 85.2344ZM68.8986 121.831H70.3364V115.406H68.8986V121.831ZM75.541 115.406H71.0146V116.965H72.562V121.831H73.9922V116.965H75.541V115.406ZM77.063 119.316L77.6455 117.501L78.2204 119.316H77.063ZM76.9661 115.406L74.7698 121.831H76.2739L76.6423 120.692H78.6334L79.0094 121.831H80.5429L78.3453 115.406H76.9661ZM83.6748 119.298H86.1515V117.893H83.6748V116.92H86.4103V115.406H82.2599V121.831H86.4472V120.316H83.6748V119.298ZM89.3293 117.855C88.6142 117.66 88.4383 117.536 88.4383 117.251V117.233C88.4383 117.011 88.6078 116.835 88.9546 116.835C89.4109 116.835 89.9271 117.047 90.3988 117.447L91.1139 116.231C90.5543 115.689 89.8685 115.406 88.9902 115.406C87.7525 115.406 86.9928 116.24 86.9928 117.393V117.411C86.9928 118.689 87.8405 119.062 88.9393 119.363C89.6391 119.559 89.8086 119.701 89.8086 119.959V119.976C89.8086 120.242 89.6021 120.402 89.2197 120.402C88.6219 120.402 88.0546 120.145 87.546 119.656L86.7493 120.802C87.3829 121.485 88.2535 121.831 89.1674 121.831C90.4205 121.831 91.2541 121.076 91.2541 119.808V119.79C91.2541 118.627 90.5173 118.166 89.3293 117.855ZM91.4402 116.965H92.9877V121.831H94.4192V116.965H95.9666V115.406H91.4402V116.965Z" fill="black"/>
</svg>
