<svg width="205" height="205" viewBox="0 0 205 205" fill="none" xmlns="http://www.w3.org/2000/svg">
<rect x="2" y="3" width="200" height="202" rx="40" fill="white"/>
<path d="M102.359 183.793C58.2126 183.793 22.2988 147.878 22.2988 103.734C22.2988 59.5899 58.2126 23.6747 102.359 23.6747C146.503 23.6747 182.417 59.5899 182.417 103.734C182.417 147.878 146.503 183.793 102.359 183.793ZM180.191 70.8531C175.936 60.7946 169.847 51.7614 162.089 44.0042C154.332 36.2471 145.299 30.1559 135.238 25.9013C124.825 21.4952 113.762 19.2617 102.359 19.2617C90.9563 19.2617 79.8932 21.4952 69.4777 25.9013C59.4173 30.1559 50.384 36.2471 42.6268 44.0042C34.8695 51.7614 28.78 60.7946 24.5254 70.8531C20.1193 81.2685 17.8857 92.3316 17.8857 103.734C17.8857 115.137 20.1193 126.2 24.5254 136.615C28.78 146.673 34.8695 155.708 42.6268 163.466C50.384 171.221 59.4173 177.312 69.4777 181.567C79.8932 185.973 90.9563 188.206 102.359 188.206C113.762 188.206 124.825 185.973 135.238 181.567C145.299 177.312 154.332 171.221 162.089 163.466C169.847 155.708 175.936 146.673 180.191 136.615C184.597 126.2 186.83 115.137 186.83 103.734C186.83 92.3316 184.597 81.2685 180.191 70.8531Z" fill="black"/>
<path d="M124.727 161.048C124.727 161.319 124.505 161.537 124.235 161.537H80.8863C80.6159 161.537 80.3965 161.319 80.3965 161.048V144.031C80.3965 143.763 80.6159 143.545 80.8863 143.545H124.235C124.505 143.545 124.727 143.763 124.727 144.031V161.048ZM127.811 149.436C134.836 145.237 135.727 139.217 135.727 139.217C131.72 139.238 128.648 140.335 126.299 141.893C125.899 141.518 125.364 141.284 124.77 141.284H80.3508C79.7575 141.284 79.222 141.518 78.8235 141.893C76.4747 140.335 73.4008 139.238 69.3947 139.217C69.3947 139.217 70.2848 145.237 77.3103 149.436C72.2685 148.806 63.0819 148.246 56.7498 151.288C56.7498 151.288 64.8831 159.443 78.1213 153.64V161.582C78.1213 162.805 79.1185 163.797 80.3508 163.797H97.4723L90.5047 172.08L92.7359 172.336L93.3907 174.472L102.37 163.797H102.751L111.731 174.472L112.385 172.336L114.617 172.08L107.651 163.797H124.77C126.003 163.797 127 162.805 127 161.582V153.64C140.24 159.443 148.371 151.288 148.371 151.288C142.039 148.246 132.853 148.806 127.811 149.436ZM64.2546 44.3815C56.4461 47.9506 57.9348 54.7852 57.9348 54.7852C63.9843 50.4102 64.2546 44.3815 64.2546 44.3815ZM70.9747 51.4517C70.9747 51.4517 64.6092 49.8921 60.8981 55.1777C60.8981 55.1777 67.662 56.1441 70.9747 51.4517ZM73.938 39.8652C73.938 39.8652 67.2987 40.7043 66.4332 47.129C66.4332 47.129 72.5634 44.4705 73.938 39.8652ZM77.3577 46.2777C71.8577 44.8368 68.8031 48.5036 68.8031 48.5036C75.0984 49.6375 77.3577 46.2777 77.3577 46.2777ZM83.2544 41.123C77.7158 39.7257 74.5331 43.4989 74.5331 43.4989C80.6247 44.6955 83.2544 41.123 83.2544 41.123ZM54.9697 51.6296C46.3625 56.7774 50.0315 64.3115 50.0315 64.3115C55.5894 57.9758 54.9697 51.6296 54.9697 51.6296ZM63.9878 58.0595C63.9878 58.0595 57.1237 57.2501 52.9966 64.2103C52.9966 64.2103 60.4715 64.5156 63.9878 58.0595ZM46.0272 69.2936C47.1911 63.8789 44.9423 59.5248 44.9423 59.5248C35.7996 69.8326 43.6959 77.6127 43.6959 77.6127C44.6193 73.5936 44.8615 74.71 46.0272 69.2936ZM39.9514 92.681C39.9602 89.5585 40.8783 88.7246 40.3306 82.7221C39.7846 76.7196 36.0331 72.9167 36.0331 72.9167C29.8783 86.5581 39.9514 92.681 39.9514 92.681ZM57.2484 66.963C57.2484 66.963 50.265 66.3106 46.4748 76.3846C46.4748 76.3846 54.8556 75.2734 57.2484 66.963ZM52.2031 78.1517C52.2031 78.1517 44.1207 79.0379 42.525 90.326C42.525 90.326 51.3042 87.0552 52.2031 78.1517ZM39.7548 109.174C39.021 105.727 39.4774 103.055 37.5779 97.3456C35.6785 91.6378 30.9667 88.9514 30.9667 88.9514C27.0712 103.411 39.7548 109.174 39.7548 109.174ZM41.8298 105.051C41.8298 105.051 49.9051 100.264 49.2398 90.5214C49.2398 90.5214 40.622 93.3753 41.8298 105.051ZM43.5168 124.398C42.6198 122.593 42.7146 120.845 38.9244 114.525C35.1325 108.203 28.8777 106.232 28.8777 106.232C28.6073 121.286 43.5168 124.398 43.5168 124.398ZM48.8255 103.491C39.8741 110.713 44.9423 120.593 44.9423 120.593C52.2083 110.847 48.8255 103.491 48.8255 103.491ZM51.8133 115.655C43.9171 127.936 54.0253 136.862 54.0253 136.862C53.7918 133.253 54.3922 129.889 54.8012 125.096C55.2102 120.302 51.8133 115.655 51.8133 115.655ZM50.832 137.24C39.667 123.064 31.6549 124.098 31.6549 124.098C36.0068 139.871 50.832 137.24 50.832 137.24Z" fill="black"/>
<path d="M147.217 54.849C147.217 54.849 148.683 47.9852 140.991 44.4008C140.991 44.4008 141.259 50.4553 147.217 54.849ZM144.298 55.2432C140.644 49.935 134.372 51.5012 134.372 51.5012C137.635 56.2137 144.298 55.2432 144.298 55.2432ZM138.845 47.16C137.993 40.7079 131.453 39.8652 131.453 39.8652C132.807 44.4902 138.845 47.16 138.845 47.16ZM128.084 46.3051C128.084 46.3051 130.311 49.6792 136.511 48.5405C136.511 48.5405 133.504 44.8581 128.084 46.3051ZM130.866 43.5144C130.866 43.5144 127.731 39.7251 122.275 41.1283C122.275 41.1283 124.866 44.7162 130.866 43.5144ZM150.137 51.6799C150.137 51.6799 149.527 58.0532 155.002 64.416C155.002 64.416 158.616 56.8496 150.137 51.6799ZM141.254 58.1373C144.718 64.6209 152.083 64.3144 152.083 64.3144C148.017 57.3244 141.254 58.1373 141.254 58.1373ZM161.243 77.774C161.243 77.774 169.021 69.9607 160.015 59.6088C160.015 59.6088 157.8 63.9815 158.948 69.4193C160.095 74.8589 160.333 73.7377 161.243 77.774ZM168.791 73.058C168.791 73.058 165.097 76.8771 164.558 82.9052C164.02 88.9317 164.923 89.7708 164.931 92.9067C164.931 92.9067 174.856 86.7576 168.791 73.058ZM147.893 67.0788C150.25 75.4247 158.505 76.5407 158.505 76.5407C154.774 66.4236 147.893 67.0788 147.893 67.0788ZM152.863 78.3153C153.75 87.2569 162.398 90.5417 162.398 90.5417C160.824 79.2053 152.863 78.3153 152.863 78.3153ZM165.125 109.471C165.125 109.471 177.621 103.682 173.782 89.1612C173.782 89.1612 169.14 91.8591 167.269 97.5912C165.398 103.325 165.848 106.009 165.125 109.471ZM163.081 105.329C164.273 93.6039 155.782 90.7379 155.782 90.7379C155.126 100.522 163.081 105.329 163.081 105.329ZM175.84 106.513C175.84 106.513 169.678 108.495 165.943 114.844C162.209 121.191 162.303 122.946 161.419 124.759C161.419 124.759 176.106 121.634 175.84 106.513ZM156.192 103.763C156.192 103.763 152.858 111.151 160.015 120.938C160.015 120.938 165.009 111.016 156.192 103.763ZM153.247 115.979C153.247 115.979 149.901 120.646 150.303 125.46C150.706 130.274 151.298 133.652 151.068 137.276C151.068 137.276 161.025 128.312 153.247 115.979ZM154.213 137.657C154.213 137.657 168.817 140.298 173.104 124.458C173.104 124.458 165.212 123.419 154.213 137.657ZM142.157 146.279C142.157 146.279 154.718 153.543 164.93 141.022C164.93 141.022 156.951 137.8 142.157 146.279ZM147.315 129.193C144.312 132.166 141.512 135.446 140.839 138.762C140.009 142.872 139.24 145.36 139.24 145.36C151.078 139.584 147.315 129.193 147.315 129.193Z" fill="black"/>
<path d="M39.8613 141.492C50.2173 154.093 62.9567 146.783 62.9567 146.783C47.9532 138.249 39.8613 141.492 39.8613 141.492ZM57.7252 129.587C57.7252 129.587 53.909 140.044 65.9153 145.857C65.9153 145.857 65.1367 143.353 64.2931 139.217C63.6126 135.88 60.7715 132.579 57.7252 129.587ZM102.327 56.6345L106.459 67.5781H98.1426L102.327 56.6345ZM92.4744 82.7568L95.1226 75.8824H109.426L112.127 82.7568H123.146L107.36 43.9858H97.4534L81.6677 82.7568H92.4744ZM77.5814 97.5582H84.3089C87.7533 97.5582 89.8718 99.1098 89.8718 102.155V102.266C89.8718 105.09 87.8585 106.864 84.3632 106.864H77.5814V97.5582ZM77.5814 114.08H81.3204L89.5544 127.025H101.42L92.5726 113.511C97.1815 111.46 100.202 107.529 100.202 101.601V101.492C100.202 97.6693 99.0896 94.679 96.9167 92.4628C94.4281 89.804 90.5067 88.2525 84.8385 88.2525H67.3043V127.025H77.5814V114.08ZM104.789 107.638V107.744C104.789 118.449 112.841 127.025 123.707 127.025C132.034 127.025 138.767 121.928 141.461 114.733L131.501 112.982C130.012 115.789 127.29 117.704 123.809 117.704C118.476 117.704 114.803 113.019 114.803 107.638V107.53C114.803 102.153 118.376 97.5741 123.707 97.5741C127.162 97.5741 129.912 99.5029 131.44 102.306L141.503 100.536C138.858 93.3232 132.167 88.2525 123.809 88.2525C112.941 88.2525 104.789 96.9323 104.789 107.638ZM83.7862 157.989H85.7645V149.149H83.7862V157.989ZM92.9251 149.149H86.6975V151.295H88.8266V157.989H90.7943V151.295H92.9251V149.149ZM95.0191 154.528L95.8206 152.032L96.6116 154.528H95.0191ZM94.8859 149.149L91.8641 157.989H93.9336L94.4404 156.422H97.1798L97.6971 157.989H99.8069L96.7834 149.149H94.8859ZM104.116 154.503H107.524V152.571H104.116V151.233H107.88V149.149H102.169V157.989H107.93V155.905H104.116V154.503ZM111.896 152.518C110.912 152.25 110.67 152.079 110.67 151.688V151.663C110.67 151.358 110.903 151.115 111.38 151.115C112.008 151.115 112.718 151.407 113.367 151.957L114.351 150.284C113.581 149.538 112.638 149.149 111.429 149.149C109.726 149.149 108.681 150.297 108.681 151.883V151.908C108.681 153.666 109.847 154.179 111.359 154.593C112.322 154.863 112.555 155.059 112.555 155.413V155.436C112.555 155.803 112.271 156.023 111.745 156.023C110.922 156.023 110.142 155.669 109.442 154.997L108.346 156.573C109.218 157.513 110.415 157.989 111.673 157.989C113.397 157.989 114.544 156.951 114.544 155.205V155.18C114.544 153.581 113.53 152.947 111.896 152.518ZM114.8 151.295H116.929V157.989H118.898V151.295H121.028V149.149H114.8V151.295Z" fill="black"/>
</svg>
